<?xml version="1.0" encoding="utf-8"?>
<!-- Generator: Adobe Illustrator 16.0.4, SVG Export Plug-In . SVG Version: 6.00 Build 0)  -->
<!DOCTYPE svg PUBLIC "-//W3C//DTD SVG 1.1//EN" "http://www.w3.org/Graphics/SVG/1.1/DTD/svg11.dtd">
<svg version="1.1" id="Layer_1" xmlns="http://www.w3.org/2000/svg" xmlns:xlink="http://www.w3.org/1999/xlink" x="0px" y="0px"
	 width="300px" height="100px" viewBox="0 0 300 100" enable-background="new 0 0 300 100" xml:space="preserve">
<g id="Logo">
</g>
<path d="M294.572,46.752l-1.416,2.324l-1.414-2.324h-0.615v4.155h0.615v-3.001l1.414,2.344l1.416-2.344v3.001h0.619v-4.155H294.572z
	 M284.979,35.783h-4.24l3.563-8.893c0.037-0.047,0.037-0.121,0.037-0.152c0-0.536-0.768-0.994-1.908-0.994
	c-1.34,0-1.894,0.541-2.163,1.154l-3.729,8.885h-2.126c0,0-0.482-0.014-0.832,0.92c-0.119,0.46-0.033,0.919,0.25,0.919h1.938
	l-2.449,5.817h0.002c-0.452,1.115-0.838,2.34-0.795,3.74c-1.071,0.697-1.746,0.959-2.439,0.959c-0.73,0-1.186-0.521-1.186-1.258
	c0-0.534,0.188-1.108,0.266-1.3l0.953-2.597c0.424-1.193,0.73-2.148,0.73-2.99c0-2.861-1.684-3.628-4.059-3.628
	c-1.296,0-2.561,0.604-2.561,0.604l4.174-10.051c0.04-0.043,0.04-0.121,0.04-0.15c0-0.544-1.19-1.002-2.335-1.002
	c-1.342,0-2.104,0.535-2.377,1.152l-7.067,17.223c-0.283,0.42-2.414,2.539-4.531,3.679c2.306-5.454,1.903-4.506,4.438-10.583h0.01
	l0.112-0.291c0.003,0,0.008-0.006,0.008-0.018l0.113-0.288c0.033-0.03,0.033-0.107,0.033-0.137c0-0.536-1.104-0.935-2.184-0.935
	c-1.223,0-1.921,0.52-2.188,1.133l-0.419,0.963c-0.966-0.871-2.489-1.3-3.982-1.3c-3.134,0-8.56,2.095-8.835,8.495
	c0,0.535,0.036,0.986,0.119,1.447c-1.457,1.339-2.609,1.752-3.676,1.752c-0.765,0-1.264-0.527-1.264-1.255
	c0-0.421,0.152-0.958,0.421-1.646c0,0,0.234-0.498,2.985-7.301c0.037-0.039,0.037-0.124,0.037-0.162
	c0-0.534-1.148-0.994-2.256-0.994c-1.26,0-1.989,0.535-2.262,1.156c0,0-2.475,6.007-3.217,7.967
	c-0.744,1.952,0.201,3.611,0.201,3.611c0-0.076,0.76,2.074,3.406,2.074c3.168,0,4.393-1.262,6.617-2.792
	c1.43,2.036,4.001,2.646,5.805,2.769c-0.299,0.689-0.512,1.164-0.574,1.318c-3.805,0.451-7.697,2.463-7.498,6.824
	c0.107,2.206,2.292,3.744,4.674,3.744c0.137,0,0.279,0,0.419-0.008c2.738-0.199,3.732-2.854,4.608-5.197
	c0.176-0.48,0.342-0.916,0.518-1.34c0.099-0.229,1.038-2.463,2.354-5.564c1.475-0.45,4.021-2.6,4.449-2.898l-1.037,2.096
	c-0.038,0.083-0.038,0.153-0.038,0.199c0,0.612,1.263,0.88,2.483,0.88c1.264,0,2.219-0.658,2.381-1.187
	c0.127-0.504,0.969-2.57,1.494-3.896c0-0.006,0-0.013,0.002-0.021c0.111-0.572,2.463-6.023,2.463-6.023
	c0.955-0.803,1.715-1.063,2.259-1.063c1.031,0,1.259,0.844,1.259,1.216c0,0.346-0.111,0.611-0.228,0.835l-1.53,3.798
	c-0.266,0.688-0.385,1.338-0.385,1.914c0,3.518,2.68,4.398,4.214,4.398c1.746,0,2.983-0.406,5.165-1.999
	c0.968,1.286,2.518,1.976,4.557,1.999h0.068c2.009,0,3.66-0.497,5.396-1.943c0.599-0.497,1.569-1.43,1.517-2.126
	c-0.062-0.806-0.961-1.175-0.961-1.175s-0.524,0.43-1.194,0.865c-1.104,0.713-2.251,1.449-3.644,1.587
	c-1.133,0.104-1.882-0.046-2.275-0.476c-0.307-0.338-0.435-0.902-0.368-1.668c0.101-1.103,0.57-2.234,1.085-3.414l2.21-5.54h4.402
	c0,0,0.481,0,0.83-0.935C285.348,36.22,285.268,35.783,284.979,35.783z M244.707,55.623c-0.076,0.15-0.164,0.312-0.235,0.475
	c-0.087,0.244-0.19,0.52-0.3,0.825c-0.457,1.286-1.082,3.062-2.093,3.38c-0.185,0.063-0.354,0.087-0.522,0.087
	c-0.371,0-0.693-0.153-0.923-0.437c-0.327-0.428-0.425-1.078-0.263-1.744c0.418-1.721,2.715-2.727,4.564-3.061
	C244.887,55.299,244.804,55.453,244.707,55.623z M247.402,48.604c-2.816-0.266-4.075-2.089-4.075-3.771
	c0-0.582,0.134-1.203,0.263-1.684c0.359-1.118,1.802-3.684,4.383-3.684c1.512,0,2.498,0.805,2.651,1.617
	C249.398,43.965,248.52,46.01,247.402,48.604z M29.947,24.334c-6.198,0-10.676,2.005-14.727,3.873
	c-0.156,0.046-0.233,0.274-0.233,0.613c0,0.352,0.118,0.766,0.312,1.186c0,0.155,0.807,1.455,1.604,1.455
	c3.479-1.905,7.837-2.947,12.278-2.947c5.007,0,6.883,3.185,6.883,4.83c0,4.096-4.057,7.031-6.81,7.031
	c-0.151,0-0.263-0.037-0.419-0.037c0.156-0.19,0.918-2.029,0.918-3.972c0-2.532-2.411-3.872-4.291-3.872
	c-2.476,0-4.735,1.455-4.735,4.436c0,0.921,0.265,2.299,1.066,3.294c1.151,1.376,2.411,1.606,2.411,1.606
	c-0.493,2.602-1.26,3.942-1.527,4.592c-0.382,0.872-0.954,1.676-2.336,1.676c-1.259,0-2.787-0.528-4.164-1.254
	c-0.039-0.038-0.114-0.085-0.152-0.085c-0.536,0-1.225,1.302-1.225,2.028c0,0.275,0.037,0.498,0.15,0.65
	c0.462,0.46,2.982,1.997,5.509,1.997c3.289,0,5.507-1.376,6.729-5.013l1.264-3.711c0-0.075,0.459-0.039,1.072-0.039
	c2.295,0,5.089-0.688,7.764-2.678c2.564-1.912,4.055-4.744,4.055-7.607C41.344,26.266,33.964,24.334,29.947,24.334z M24.974,39.497
	c-1.53-0.454-2.179-1.646-2.179-2.64c0-0.844,0.531-1.912,1.486-1.912c0.651,0,1.149,0.57,1.149,1.681L24.974,39.497z
	 M235.545,31.606c0,1.362,1.096,2.464,2.457,2.464c1.357,0,2.454-1.102,2.454-2.464c0-1.349-1.097-2.448-2.454-2.448
	C236.641,29.158,235.545,30.258,235.545,31.606z M287.475,47.342h1.125v3.565h0.616v-3.565h1.145v-0.59h-2.886V47.342z
	 M236.254,26.83c0,0,0.719,0.216,1.403-1.399c0.174-0.698,0.045-1.294-0.372-1.37c-0.272-0.047-1.186-0.146-1.546-0.146
	c-0.774,0-1.883,0.084-2.828,0.521c-1.493,0.68-2.33,1.92-3,3.359c-0.265,0.56-4.563,11.203-6.035,14.954
	c-0.349-0.399-4.454-4.072-5.811-5.931c0.263-0.774,0.638-1.584,1.034-2.426c0.857-1.83,1.744-3.721,1.641-5.742
	c-0.127-2.385-2.607-4.055-4.931-4.299c-0.232-0.03-0.466-0.041-0.695-0.041c-3.423,0-6.104,2.705-6.104,6.146
	c0,2.811,1.158,4.156,2.382,5.587c0.183,0.214,0.38,0.444,0.565,0.674c0.132,0.152,0.289,0.337,0.471,0.536
	c0.348,0.382,1.066,1.178,1.085,1.438c-0.005,0.169-0.281,0.752-0.411,1.034c-0.082,0.168-0.148,0.33-0.203,0.444
	c-0.779,1.903-3.393,8.011-4.271,9.74c-2.175,4.258-7.212,2.099-4.271-2.419c0.349-0.533,0.835-0.961,1.421-1.543
	c0,0,0.119-0.125,0.125-0.131c0.247-0.283-0.262-1.08-0.884-1.64c-0.962-0.87-1.346-0.665-1.763-0.45
	c-0.931,0.658-1.692,1.355-1.692,1.355s-3.63,2.861-5.549,2.861c-0.044,0-0.108,0.008-0.154,0l0.001-0.008
	c-0.88,0-1.189-0.824-1.189-1.406c0-0.498,0.158-0.996,0.31-1.332l3.249-7.814c0.033-0.04,0.033-0.115,0.033-0.146
	c0-0.543-1.18-1.003-2.367-1.003c-1.301,0-2.177,0.544-2.406,1.149l-0.234,0.612c-0.84-1.302-2.064-1.762-3.477-1.762
	c-5.698,0-9.447,5.78-9.836,9.833c-1.289,1.026-2.735,1.91-3.768,1.916c-0.684-0.039-1.118-0.552-1.118-1.256
	c0-0.533,0.19-1.103,0.269-1.303l0.961-2.6c0.419-1.195,0.725-2.144,0.725-2.984c0-2.878-1.686-3.637-4.061-3.637
	c-1.295,0-2.557,0.613-2.557,0.613l4.139-9.975c0.043-0.045,0.043-0.121,0.043-0.152c0-0.534-1.187-0.994-2.336-0.994
	c-1.34,0-2.104,0.535-2.373,1.146l-6.401,15.714c-0.761,2.411-5.693,5.81-7.95,5.81c-2.865,0-3.789-2.1-3.789-3.666
	c0-0.498,0.12-1.033,0.232-1.453c0.303-0.959,1.531-3.36,3.748-3.36c1.416,0,1.834,0.72,1.834,1.483c0,0.535-0.227,1.072-0.496,1.34
	l0.883,0.649c2.139-0.843,2.863-2.372,2.863-3.634c0-2.374-2.525-3.521-4.97-3.521c-3.134,0-8.565,2.104-8.835,8.496
	c0,0.542,0.039,0.984,0.117,1.453c-1.457,1.338-2.605,1.752-3.677,1.752c-0.771,0-1.263-0.535-1.263-1.254
	c0-0.428,0.151-0.967,0.425-1.651c0,0,0.405-0.782,3.157-7.595c0.039-0.029,0.039-0.104,0.039-0.152c0-0.527-1.145-0.988-2.25-0.988
	c-1.27,0-1.994,0.529-2.265,1.141l-3.965,9.658c0,0-1.337,0.881-1.987,0.881c-0.92,0-1.646-0.344-1.646-1.408
	c0-0.383,0.154-0.805,0.35-1.294l1.911-4.636c0.188-0.46,0.521-1.318,0.521-1.824c0-1.217-0.842-2.518-3.523-2.518h-2.175
	c-1.567,0-2.373,1.418-2.373,2.061c0,0.152,0.037,0.381,0.493,0.381h1.767c0.611,0,0.951,0.5,0.951,0.996
	c0,0.228-0.252,0.826-0.447,1.324c0,0.039-0.229,0.459-1.791,4.398l-0.08,0.2c-1.72,1.518-3.29,2.319-4.553,2.319
	c-3.02,0-0.686-4.324-4.359-6.229c7.49-4.523,12.113-14.382,12.342-14.873c0.037-0.045,0.037-0.074,0.037-0.152
	c0-0.534-1.262-0.994-2.525-0.994c-1.451,0-2.296,0.528-2.566,1.146c-3.818,8.796-8.244,12.348-10.156,12.961
	c-0.345,0.113-0.379,0.037-0.57,0.083c1.833-1.806,3.137-6.781,3.137-8.849c0-4.592-3.333-5.924-4.63-6.074
	c-0.532-0.078-1.032-0.127-1.527-0.127c-4.863,0-7.651,4.221-7.651,8.161c0,2.251,0.875,4.583,2.717,6.384
	c1.416,1.377,2.829,1.713,2.829,1.713c-1.569,3.061-3.218,6.85-8.264,6.85h-0.01c-1.512,0-1.826-0.832-1.826-1.408
	c0-0.498,0.153-0.996,0.306-1.338l3.252-7.807c0.039-0.04,0.039-0.109,0.039-0.154c0-0.535-1.186-0.993-2.373-0.993
	c-1.301,0-2.182,0.534-2.406,1.147l-0.229,0.613c-0.842-1.303-2.072-1.761-3.488-1.761c-5.693,0-9.438,5.771-9.827,9.831
	c-1.304,1.037-2.749,1.908-3.786,1.908c-0.726,0-1.183-0.529-1.183-1.256c0-0.533,0.191-1.103,0.267-1.303l1.069-2.6
	c0.497-1.227,0.729-2.26,0.729-3.138c0-2.759-1.913-3.483-4.171-3.483c-1.299,0-2.562,0.613-2.562,0.613l4.172-10.059
	c0.037-0.037,0.037-0.113,0.037-0.158c0-0.537-1.186-0.995-2.335-0.995c-1.338,0-2.103,0.542-2.368,1.153l-6.199,15.224
	c-0.842,2.403-5.505,6.384-8.26,6.384c-2.87,0-3.785-2.1-3.785-3.666c0-0.498,0.113-1.033,0.229-1.453
	c0.306-0.959,1.527-3.36,3.745-3.36c1.418,0,1.84,0.72,1.84,1.483c0,0.535-0.232,1.072-0.5,1.34l0.881,0.649
	c2.138-0.843,2.866-2.372,2.866-3.634c0-2.374-2.521-3.521-4.966-3.521c-3.145,0-8.574,2.104-8.842,8.496
	c0,0.383,0,0.725,0.039,1.071c-1.76,1.683-4.281,2.871-6.348,2.871c-1.607,0-2.986-1.118-3.365-2.448
	c5.465-1.341,8.066-3.906,8.066-6.24c0-2.603-2.367-3.71-4.624-3.71c-4.172,0-8.683,3.061-8.683,7.881
	c0,4.439,3.323,7.309,7.836,7.309c2.796,0,5.969-1.376,7.996-3.138c1.609,2.596,4.896,3.053,6.732,3.053
	c1.873,0,4.51-0.681,6.652-3.443l-1.186,2.375c-0.038,0.074-0.038,0.12-0.038,0.198c0,0.61,1.264,0.87,2.531,0.87
	c1.22,0,2.252-0.527,2.405-1.068c0.149-0.729,1.684-4.086,1.72-4.319l2.375-5.692c0.956-0.812,1.718-1.078,2.255-1.078
	c1.032,0,1.258,0.84,1.258,1.223c0,0.346-0.111,0.613-0.226,0.834l-1.53,3.796c-0.267,0.688-0.421,1.415-0.421,1.991
	c0,3.521,2.716,4.314,4.247,4.314c2.258,0,4.053-1.146,5.889-2.525c0.58,1.272,1.76,2.412,3.827,2.412
	c2.062,0,4.319-0.65,6.157-2.258c0.879,1.759,1.704,2.296,5.777,2.296c8.104,0,9.828-4.433,12.43-8.985
	c1.755,0.489,1.986,2.832,1.986,4.058c0,0.412-0.033,0.688-0.033,0.688c0,2.221,1.483,4.162,5.354,4.162
	c1.908,0,3.629-0.269,6.083-2.135c0.649,1.866,2.671,2.336,3.477,2.336c3.062,0,5.585-2.113,5.585-2.113
	c0-0.07,0.765,2.064,3.406,2.064c3.17,0,4.395-1.253,6.615-2.784c1.642,2.327,4.781,2.784,6.535,2.784
	c2.182,0,5.738-1.529,6.659-3.559l-1.11,2.49c-0.039,0.074-0.039,0.152-0.039,0.198c0,0.61,1.265,0.87,2.487,0.87
	c1.259,0,2.217-0.643,2.373-1.176c0.191-0.736,1.608-3.979,1.646-4.212l2.371-5.692c0.955-0.812,1.721-1.078,2.26-1.078
	c1.025,0,1.253,0.84,1.253,1.223c0,0.346-0.114,0.613-0.228,0.834l-1.523,3.796c-0.268,0.688-0.385,1.341-0.385,1.915
	c0,3.521,2.679,4.391,4.205,4.391h0.009c0.009,0,0.012,0,0.012-0.014c2.205-0.029,3.985-1.156,5.781-2.512
	c0.579,1.256,1.767,2.404,3.832,2.404c2.058,0,4.325-0.643,6.157-2.25c0.883,1.76,2.525,2.296,4.205,2.296h0.012
	c1.31,0,2.457-0.308,5.284-2.159c-2.567,7.409,7.878,10.318,11.154,3.507c1.563-3.247,4.637-10.133,4.972-10.915
	c1.103,1.295,6.597,6.844,8.258,8.718l0.423,0.476l0.242-0.59c1.037-2.52,2.066-5.106,3.147-7.854
	c1.701-4.301,5.436-13.214,5.512-13.392C234.228,27.564,234.682,26.691,236.254,26.83z M43.412,43.169
	c0-2.562,2.485-3.558,3.288-3.558c0.841,0,1.257,0.583,1.3,1.071c0,0.995-0.923,2.066-4.364,3.704
	C43.489,43.975,43.412,43.543,43.412,43.169z M96.957,45.917c-0.728,0.927-2.375,2.112-4.129,2.112c-0.92,0-1.381-0.735-1.381-1.721
	c0-3.673,3.784-7.311,5.926-7.311c0.732,0,1.57,0.23,1.918,1.377L96.957,45.917z M113.17,38.847
	c-0.378-0.038-2.445-2.028-2.445-6.736c0-0.26,0-0.534,0.041-0.765c0.11-0.836,0.959-3.781,2.328-3.89
	c1.458,0,2.177,1.979,2.22,2.705c0,0.267,0.037,0.542,0.037,0.802C115.351,35.676,113.17,38.847,113.17,38.847z M189.936,45.917
	c-0.732,0.919-2.377,2.096-4.135,2.096c-0.919,0-1.378-0.719-1.378-1.715c0-3.672,3.786-7.3,5.929-7.3
	c0.722,0,1.57,0.223,1.912,1.377L189.936,45.917z M215.902,33.328c-0.181,0.338-0.366,0.674-0.542,1.018
	c-0.14-0.139-0.291-0.275-0.449-0.428c-1.106-1.043-2.349-2.22-2.463-3.704c-0.09-1.104,0.341-1.806,0.706-2.221
	c0.507-0.537,1.219-0.856,1.955-0.856c0.666,0,1.279,0.268,1.731,0.733c0.26,0.275,0.532,0.881,0.458,1.698
	C217.186,30.953,216.535,32.164,215.902,33.328z M122.934,15.479h3.171l0.687,1.684h1.726l-3.213-7.555h-1.523l-3.214,7.555h1.684
	L122.934,15.479z M124.521,11.59l0.995,2.432h-1.993L124.521,11.59z M111.032,14.76h1.298l1.607,2.402h1.929l-1.832-2.681
	c0.954-0.353,1.604-1.114,1.604-2.324v-0.021c0-0.711-0.222-1.299-0.641-1.716c-0.492-0.493-1.232-0.761-2.187-0.761h-3.429v7.502
	h1.649V14.76z M111.032,11.147h1.64c0.806,0,1.297,0.365,1.297,1.075v0.02c0,0.633-0.459,1.061-1.265,1.061h-1.672V11.147z
	 M104.05,15.104v-0.021c0-1.008-0.535-1.51-1.402-1.842c0.535-0.3,0.985-0.773,0.985-1.621V11.6c0-0.515-0.172-0.932-0.514-1.275
	c-0.428-0.428-1.102-0.664-1.961-0.664h-3.482v7.502h3.566C102.936,17.162,104.05,16.477,104.05,15.104z M99.281,11.105h1.631
	c0.695,0,1.082,0.277,1.082,0.773v0.02c0,0.561-0.461,0.795-1.191,0.795h-1.521V11.105z M99.281,14.062h1.908
	c0.848,0,1.224,0.312,1.224,0.816v0.02c0,0.56-0.441,0.816-1.171,0.816h-1.961V14.062z M145.05,9.66h-1.65v7.502h1.65V9.66z
	 M174.008,15.479h3.174l0.684,1.684h1.727l-3.215-7.555h-1.521l-3.216,7.555h1.683L174.008,15.479z M175.595,11.59l0.997,2.432
	h-1.993L175.595,11.59z M134.398,17.162h1.65v-5.981h2.281V9.66h-6.214v1.521h2.282V17.162z M196.742,15.479h3.171l0.687,1.684
	h1.724l-3.213-7.555h-1.521l-3.217,7.555h1.684L196.742,15.479z M198.328,11.59l0.998,2.432h-1.996L198.328,11.59z M187.712,17.215
	l3.032-7.555h-1.78l-1.96,5.283l-1.961-5.283h-1.821l3.032,7.555H187.712z M153.49,15.812c-0.859,0-1.566-0.354-2.241-0.913
	l-0.975,1.17c0.899,0.803,2.044,1.201,3.182,1.201c1.62,0,2.754-0.836,2.754-2.326v-0.022c0-1.306-0.856-1.854-2.378-2.25
	c-1.297-0.333-1.62-0.494-1.62-0.986v-0.021c0-0.365,0.333-0.654,0.966-0.654c0.635,0,1.286,0.277,1.951,0.74l0.857-1.244
	c-0.761-0.609-1.691-0.951-2.786-0.951c-1.534,0-2.625,0.898-2.625,2.258v0.021c0,1.492,0.976,1.91,2.485,2.295
	c1.254,0.322,1.514,0.535,1.514,0.953v0.021C154.574,15.543,154.164,15.812,153.49,15.812z M166.951,15.662h-3.741V9.66h-1.65v7.502
	h5.392V15.662z M202.145,91.397c-0.824-0.306-1.295-0.471-1.295-0.993c0-0.408,0.404-0.722,0.917-0.722
	c0.747,0,1.249,0.678,1.249,0.678l0.712-0.706c0,0-0.708-0.948-1.961-0.948c-1.206,0-1.963,0.853-1.963,1.698
	c0,1.113,1.001,1.592,1.875,1.898c0.72,0.251,1.101,0.428,1.101,0.941c0,0.488-0.528,0.691-1.044,0.691
	c-0.919,0-1.424-0.902-1.424-0.902l-0.771,0.652c0,0,0.694,1.226,2.195,1.226c1.134,0,2.097-0.585,2.097-1.667
	C203.832,92.15,203.072,91.74,202.145,91.397z M202.783,73.014c0-5.732-4.461-10.115-10.196-10.115s-10.192,4.383-10.192,10.115
	c0,5.73,4.457,10.109,10.192,10.109S202.783,78.744,202.783,73.014z M192.587,80.98c-4.468,0-7.922-3.59-7.922-7.967
	c0-4.383,3.454-7.97,7.922-7.97c4.465,0,7.927,3.587,7.927,7.97C200.514,77.391,197.052,80.98,192.587,80.98z M103.629,91.825
	l-1.954-3.017h-0.958v6.004h1.031v-4.031l1.881,2.853l1.87-2.853v4.031h1.036v-6.004h-0.955L103.629,91.825z M167.315,91.397
	c-0.825-0.306-1.298-0.471-1.298-0.993c0-0.408,0.412-0.722,0.922-0.722c0.746,0,1.235,0.678,1.235,0.678l0.719-0.706
	c0,0-0.709-0.948-1.954-0.948c-1.208,0-1.965,0.853-1.965,1.698c0,1.113,0.996,1.592,1.875,1.898
	c0.715,0.251,1.096,0.428,1.096,0.941c0,0.488-0.524,0.691-1.043,0.691c-0.912,0-1.425-0.902-1.425-0.902l-0.771,0.652
	c0,0,0.695,1.226,2.195,1.226c1.135,0,2.103-0.585,2.103-1.667C169.005,92.15,168.229,91.74,167.315,91.397z M158.496,63.268
	L150,71.77l-8.498-8.502l-1.531,1.532l8.5,8.501l-8.5,8.496l1.531,1.528L150,74.83l8.496,8.495l1.537-1.528l-8.503-8.496
	l8.503-8.501L158.496,63.268z M123.172,62.898c-5.727,0-10.189,4.383-10.189,10.115c0,5.73,4.463,10.109,10.189,10.109
	c5.732,0,10.191-4.379,10.191-10.109C133.363,67.281,128.904,62.898,123.172,62.898z M123.172,80.98
	c-4.465,0-7.918-3.59-7.918-7.967c0-4.383,3.453-7.97,7.918-7.97c4.469,0,7.92,3.587,7.92,7.97
	C131.092,77.391,127.641,80.98,123.172,80.98z M177.616,93.955c-1.187,0-1.997-0.991-1.997-2.15c0-1.154,0.811-2.145,1.997-2.145
	c0.984,0,1.521,0.662,1.521,0.662l0.692-0.676c0,0-0.779-0.94-2.214-0.94c-1.735,0-3.051,1.327-3.051,3.099
	c0,1.781,1.315,3.106,3.051,3.106c1.512,0,2.307-1.022,2.307-1.022l-0.687-0.672C179.236,93.217,178.666,93.955,177.616,93.955z
	 M191.474,92.938l-3.011-4.13h-0.92v6.004h1.03V90.68l2.999,4.133h0.927v-6.004h-1.025V92.938z M171.174,92.219h2.4v-0.975h-2.4
	v-1.455h2.602v-0.98h-3.633v6.004h3.676V93.83h-2.645V92.219z M195.795,88.809h-1.937v6.004h1.937c1.748,0,2.969-1.271,2.969-3.008
	C198.764,90.073,197.543,88.809,195.795,88.809z M195.817,93.83h-0.934v-4.041h0.934c1.167,0,1.901,0.922,1.901,2.016
	C197.719,92.893,196.984,93.83,195.817,93.83z M174.721,74.444l-8.469,8.172h14.414v-2.021h-9.236c0,0,5.944-5.938,6.283-6.323
	c1.009-1.134,2.354-2.649,2.354-4.838c0-4.048-2.861-6.536-6.697-6.536c-3.287,0-5.771,2.022-6.905,5.095l1.976,0.85
	c0.76-2.147,2.527-3.799,4.93-3.799c2.741,0,4.424,1.692,4.424,4.391C177.793,71.368,176.148,73.056,174.721,74.444z M97.59,94.812
	h1.027v-6.004H97.59V94.812z M183.492,88.706c-1.75,0-3.039,1.327-3.039,3.099c0,1.781,1.289,3.106,3.039,3.106
	c1.742,0,3.037-1.325,3.037-3.106C186.529,90.033,185.234,88.706,183.492,88.706z M183.492,93.936c-1.205,0-1.989-0.972-1.989-2.131
	c0-1.154,0.784-2.122,1.989-2.122c1.207,0,1.982,0.968,1.982,2.122C185.475,92.964,184.699,93.936,183.492,93.936z M105.299,74.444
	l-8.467,8.172h14.417v-2.021h-9.228c0,0,5.934-5.938,6.279-6.323c0.998-1.134,2.352-2.649,2.352-4.838
	c0-4.048-2.863-6.536-6.697-6.536c-3.285,0-5.777,2.022-6.914,5.095l1.984,0.85c0.759-2.147,2.535-3.799,4.93-3.799
	c2.746,0,4.423,1.692,4.423,4.391C108.378,71.368,106.736,73.056,105.299,74.444z M117.645,92.391h1.361v1.266
	c0,0-0.357,0.299-1.214,0.299c-1.208,0-2.11-0.991-2.11-2.15c0-1.154,0.859-2.145,2.074-2.145c1.018,0,1.516,0.629,1.516,0.629
	l0.701-0.688c0,0-0.742-0.896-2.217-0.896c-1.756,0-3.117,1.327-3.117,3.099c0,1.781,1.4,3.106,3.153,3.106
	c1.46,0,2.226-0.759,2.226-0.759v-2.725h-2.373V92.391z M110.274,88.809l-2.339,6.004h1.041l0.549-1.428h2.537l0.554,1.428h1.03
	l-2.328-6.004H110.274z M109.895,92.443l0.896-2.347l0.903,2.347H109.895z M122.84,92.219h2.408v-0.975h-2.408v-1.455h2.611v-0.98
	h-3.637v6.004h3.683V93.83h-2.657V92.219z M129.578,91.397c-0.824-0.306-1.289-0.471-1.289-0.993c0-0.408,0.395-0.722,0.914-0.722
	c0.742,0,1.244,0.678,1.244,0.678l0.706-0.706c0,0-0.702-0.948-1.95-0.948c-1.211,0-1.97,0.853-1.97,1.698
	c0,1.113,0.995,1.592,1.882,1.898c0.713,0.251,1.099,0.428,1.099,0.941c0,0.488-0.532,0.691-1.048,0.691
	c-0.908,0-1.422-0.902-1.422-0.902l-0.777,0.652c0,0,0.703,1.226,2.199,1.226c1.131,0,2.096-0.585,2.096-1.667
	C131.262,92.15,130.496,91.74,129.578,91.397z"/>
</svg>
