<?xml version="1.0" encoding="utf-8"?>
<!-- Generator: Adobe Illustrator 16.0.4, SVG Export Plug-In . SVG Version: 6.00 Build 0)  -->
<!DOCTYPE svg PUBLIC "-//W3C//DTD SVG 1.1//EN" "http://www.w3.org/Graphics/SVG/1.1/DTD/svg11.dtd">
<svg version="1.1" id="Layer_1" xmlns="http://www.w3.org/2000/svg" xmlns:xlink="http://www.w3.org/1999/xlink" x="0px" y="0px"
	 width="150px" height="30px" viewBox="0 0 150 30" enable-background="new 0 0 150 30" xml:space="preserve">
<g id="Logo">
</g>
<path d="M144.993,17.95v2.106h0.312v-1.521l0.717,1.188l0.718-1.188v1.521h0.313V17.95h-0.313l-0.718,1.178l-0.717-1.178H144.993z
	 M143.713,18.248v1.809h0.312v-1.809h0.58V17.95h-1.462v0.298H143.713z M121.583,22.205c-0.024,0.077-0.066,0.154-0.115,0.24
	c-0.039,0.077-0.084,0.159-0.12,0.24c-0.044,0.125-0.097,0.265-0.151,0.42c-0.232,0.651-0.549,1.551-1.061,1.713
	c-0.094,0.031-0.181,0.043-0.266,0.043c-0.188,0-0.352-0.077-0.467-0.221c-0.166-0.217-0.217-0.547-0.134-0.884
	C119.481,22.885,120.646,22.375,121.583,22.205 M122.833,18.889c-1.428-0.135-2.065-1.059-2.065-1.912
	c0-0.295,0.068-0.609,0.134-0.854c0.182-0.566,0.912-1.866,2.221-1.866c0.767,0,1.266,0.408,1.344,0.819
	C123.845,16.537,123.399,17.573,122.833,18.889 M118.112,24.478c0.055,1.118,1.162,1.897,2.369,1.897c0.068,0,0.141,0,0.212-0.004
	c1.388-0.102,1.892-1.447,2.335-2.634c0.09-0.245,0.174-0.466,0.264-0.68c0.049-0.116,0.525-1.249,1.192-2.819
	c0.747-0.229,2.038-1.318,2.255-1.47l-0.525,1.062c-0.02,0.042-0.02,0.077-0.02,0.101c0,0.311,0.64,0.446,1.258,0.446
	c0.641,0,1.125-0.334,1.207-0.603c0.064-0.255,0.491-1.302,0.758-1.974c0-0.003,0-0.007,0.001-0.011
	c0.056-0.29,1.248-3.054,1.248-3.054c0.483-0.406,0.869-0.538,1.146-0.538c0.521,0,0.638,0.428,0.638,0.615
	c0,0.176-0.057,0.311-0.116,0.424l-0.775,1.924c-0.135,0.35-0.194,0.68-0.194,0.971c0,1.783,1.358,2.229,2.136,2.229
	c0.885,0,1.512-0.205,2.617-1.012c0.49,0.652,1.276,1,2.31,1.012h0.034c1.019,0,1.855-0.25,2.735-0.984
	c0.304-0.252,0.795-0.725,0.769-1.077c-0.031-0.407-0.487-0.595-0.487-0.595s-0.266,0.217-0.605,0.438
	c-0.56,0.361-1.141,0.734-1.846,0.805c-0.575,0.053-0.954-0.023-1.154-0.24c-0.155-0.172-0.22-0.459-0.187-0.846
	c0.051-0.56,0.289-1.133,0.55-1.73l1.12-2.809h2.193h0.038c0,0,0.244,0,0.421-0.473c0.057-0.237,0.017-0.459-0.129-0.459h-2.148
	l1.805-4.507c0.02-0.023,0.02-0.062,0.02-0.077c0-0.271-0.389-0.504-0.967-0.504c-0.68,0-0.96,0.274-1.097,0.584l-1.89,4.504h-0.987
	h-0.09c0,0-0.245-0.007-0.422,0.467c-0.061,0.232-0.017,0.465,0.126,0.465h0.982l-1.241,2.949h0.001
	c-0.229,0.564-0.424,1.186-0.402,1.896c-0.543,0.353-0.885,0.485-1.236,0.485c-0.371,0-0.602-0.264-0.602-0.637
	c0-0.271,0.096-0.562,0.135-0.659l0.483-1.315c0.215-0.605,0.37-1.09,0.37-1.516c0-1.45-0.854-1.839-2.057-1.839
	c-0.657,0-1.298,0.306-1.298,0.306l2.115-5.094c0.021-0.021,0.021-0.061,0.021-0.076c0-0.275-0.604-0.508-1.184-0.508
	c-0.68,0-1.066,0.271-1.205,0.584l-3.582,8.729c-0.143,0.214-1.223,1.287-2.296,1.865c1.168-2.766,0.964-2.283,2.249-5.363h0.005
	l0.057-0.148c0.001,0,0.004-0.003,0.004-0.008l0.058-0.146c0.017-0.016,0.017-0.055,0.017-0.07c0-0.271-0.56-0.473-1.106-0.473
	c-0.62,0-0.974,0.264-1.109,0.574l-0.212,0.487c-0.489-0.441-1.261-0.658-2.019-0.658c-1.588,0-4.338,1.062-4.478,4.306
	c0,0.271,0.019,0.5,0.061,0.732c-0.738,0.68-1.322,0.889-1.862,0.889c-0.389,0-0.641-0.268-0.641-0.637
	c0-0.213,0.077-0.484,0.213-0.833c0,0,0.119-0.253,1.514-3.701c0.018-0.019,0.018-0.062,0.018-0.081
	c0-0.271-0.581-0.504-1.143-0.504c-0.639,0-1.008,0.271-1.146,0.585c0,0-1.254,3.046-1.631,4.038c-0.377,0.99,0.103,1.83,0.103,1.83
	c0-0.037,0.385,1.051,1.727,1.051c1.605,0,2.226-0.639,3.353-1.414c0.726,1.032,2.029,1.342,2.942,1.402
	c-0.151,0.351-0.259,0.591-0.29,0.669C119.983,21.247,118.011,22.268,118.112,24.478 M119.312,10.273c0-0.684-0.556-1.24-1.244-1.24
	c-0.689,0-1.245,0.557-1.245,1.24c0,0.691,0.556,1.249,1.245,1.249C118.757,11.522,119.312,10.965,119.312,10.273 M10.102,14.273
	c-0.775-0.23-1.104-0.835-1.104-1.338c0-0.429,0.27-0.97,0.754-0.97c0.33,0,0.582,0.289,0.582,0.853L10.102,14.273z M12.622,6.588
	c-3.141,0-5.41,1.016-7.464,1.963C5.079,8.574,5.04,8.689,5.04,8.861c0,0.179,0.061,0.389,0.158,0.602
	c0,0.078,0.408,0.738,0.813,0.738c1.764-0.967,3.972-1.494,6.223-1.494c2.538,0,3.488,1.613,3.488,2.447
	c0,2.076-2.056,3.564-3.451,3.564c-0.077,0-0.134-0.02-0.212-0.02c0.078-0.097,0.465-1.028,0.465-2.013
	c0-1.284-1.223-1.962-2.175-1.962c-1.255,0-2.399,0.736-2.399,2.248c0,0.466,0.133,1.164,0.54,1.669
	c0.584,0.696,1.222,0.813,1.222,0.813c-0.25,1.319-0.638,1.998-0.773,2.328c-0.193,0.441-0.484,0.85-1.185,0.85
	c-0.638,0-1.412-0.269-2.11-0.637c-0.02-0.02-0.058-0.043-0.077-0.043c-0.271,0-0.62,0.66-0.62,1.027
	c0,0.141,0.018,0.254,0.076,0.33c0.233,0.233,1.512,1.013,2.791,1.013c1.668,0,2.791-0.697,3.411-2.54l0.641-1.881
	c0-0.039,0.232-0.02,0.543-0.02c1.164,0,2.579-0.35,3.935-1.357c1.301-0.97,2.056-2.404,2.056-3.855
	C18.398,7.566,14.658,6.588,12.622,6.588 M49.747,20.242c-0.001,0-0.001,0-0.002,0s-0.001,0-0.001,0H49.747z M106.594,11.662
	c-0.071-0.07-0.147-0.14-0.228-0.217c-0.562-0.528-1.19-1.125-1.248-1.877c-0.046-0.56,0.172-0.916,0.357-1.125
	c0.257-0.273,0.617-0.435,0.99-0.435c0.339,0,0.648,0.136,0.878,0.372c0.132,0.139,0.271,0.445,0.233,0.86
	c-0.059,0.702-0.389,1.315-0.709,1.905C106.776,11.317,106.683,11.488,106.594,11.662 M91.612,18.589
	c-0.466,0-0.698-0.364-0.698-0.868c0-1.861,1.919-3.701,3.005-3.701c0.365,0,0.795,0.113,0.969,0.699l-1.18,2.809
	C93.337,17.992,92.503,18.589,91.612,18.589 M54.802,13.943c-0.191-0.02-1.24-1.028-1.24-3.414c0-0.131,0-0.271,0.021-0.388
	c0.056-0.423,0.485-1.916,1.18-1.972c0.739,0,1.104,1.003,1.125,1.371c0,0.135,0.019,0.275,0.019,0.406
	C55.906,12.337,54.802,13.943,54.802,13.943 M44.491,18.598c-0.466,0-0.699-0.373-0.699-0.873c0-1.861,1.918-3.705,3.004-3.705
	c0.37,0,0.795,0.117,0.972,0.699l-1.183,2.809C46.216,17.996,45.381,18.598,44.491,18.598 M19.56,16.752
	c-0.074-0.209-0.113-0.428-0.113-0.617c0-1.299,1.26-1.804,1.666-1.804c0.428,0,0.638,0.296,0.66,0.543
	C21.772,15.378,21.304,15.921,19.56,16.752 M113.968,8.343c-0.134,0.283-2.312,5.677-3.059,7.578
	c-0.177-0.202-2.257-2.063-2.945-3.006c0.134-0.392,0.324-0.803,0.525-1.229c0.434-0.927,0.883-1.885,0.83-2.91
	c-0.063-1.209-1.32-2.055-2.498-2.179c-0.118-0.015-0.236-0.021-0.353-0.021c-1.735,0-3.094,1.371-3.094,3.115
	c0,1.425,0.587,2.106,1.207,2.832c0.093,0.108,0.192,0.225,0.287,0.341c0.066,0.077,0.146,0.171,0.238,0.271
	c0.177,0.194,0.54,0.597,0.55,0.729c-0.003,0.086-0.143,0.381-0.209,0.523c-0.041,0.086-0.074,0.168-0.103,0.226
	c-0.396,0.964-1.72,4.06-2.165,4.937c-1.102,2.158-3.654,1.064-2.164-1.226c0.177-0.271,0.423-0.487,0.72-0.782
	c0,0,0.061-0.062,0.064-0.066c0.124-0.144-0.134-0.547-0.448-0.83c-0.488-0.441-0.683-0.338-0.895-0.229
	c-0.471,0.334-0.857,0.687-0.857,0.687s-1.84,1.45-2.812,1.45c-0.022,0-0.056,0.004-0.079,0l0.002-0.004
	c-0.446,0-0.604-0.418-0.604-0.713c0-0.253,0.08-0.505,0.157-0.676l1.646-3.959c0.018-0.021,0.018-0.059,0.018-0.074
	c0-0.275-0.598-0.509-1.199-0.509c-0.66,0-1.104,0.275-1.221,0.583l-0.118,0.31c-0.426-0.659-1.046-0.893-1.763-0.893
	c-2.888,0-4.787,2.929-4.984,4.983c-0.652,0.521-1.387,0.968-1.91,0.971c-0.346-0.02-0.566-0.279-0.566-0.636
	c0-0.271,0.098-0.56,0.136-0.66l0.487-1.318c0.213-0.605,0.367-1.086,0.367-1.513c0-1.458-0.854-1.842-2.057-1.842
	c-0.657,0-1.297,0.31-1.297,0.31l2.098-5.055c0.022-0.022,0.022-0.062,0.022-0.077c0-0.271-0.603-0.504-1.184-0.504
	c-0.68,0-1.067,0.271-1.203,0.581l-3.245,7.964c-0.385,1.223-2.885,2.944-4.029,2.944c-1.452,0-1.92-1.063-1.92-1.858
	c0-0.252,0.061-0.523,0.117-0.736c0.154-0.485,0.777-1.703,1.9-1.703c0.717,0,0.93,0.365,0.93,0.752c0,0.271-0.115,0.543-0.252,0.68
	l0.447,0.329c1.084-0.427,1.451-1.202,1.451-1.843c0-1.202-1.279-1.783-2.519-1.783c-1.588,0-4.341,1.065-4.478,4.305
	c0,0.275,0.02,0.5,0.059,0.737c-0.738,0.678-1.32,0.888-1.863,0.888c-0.391,0-0.64-0.271-0.64-0.636
	c0-0.216,0.077-0.489,0.216-0.837c0,0,0.205-0.396,1.6-3.85c0.02-0.015,0.02-0.053,0.02-0.077c0-0.267-0.58-0.501-1.141-0.501
	c-0.643,0-1.01,0.269-1.146,0.578l-2.01,4.896c0,0-0.678,0.445-1.008,0.445c-0.466,0-0.834-0.174-0.834-0.713
	c0-0.194,0.078-0.408,0.178-0.656l0.969-2.35c0.095-0.233,0.264-0.668,0.264-0.924c0-0.617-0.427-1.277-1.785-1.277h-1.104
	c-0.794,0-1.202,0.719-1.202,1.045c0,0.077,0.019,0.193,0.25,0.193h0.896c0.311,0,0.481,0.252,0.481,0.504
	c0,0.116-0.127,0.42-0.227,0.672c0,0.02-0.115,0.232-0.907,2.229l-0.041,0.101c-0.871,0.77-1.668,1.176-2.307,1.176
	c-1.531,0-0.348-2.191-2.21-3.157c3.796-2.292,6.139-7.288,6.255-7.537c0.019-0.022,0.019-0.038,0.019-0.077
	c0-0.271-0.639-0.504-1.28-0.504c-0.734,0-1.162,0.268-1.3,0.581c-1.936,4.458-4.179,6.257-5.147,6.568
	c-0.175,0.058-0.192,0.019-0.289,0.042c0.929-0.915,1.59-3.437,1.59-4.484c0-2.328-1.689-3.003-2.348-3.078
	c-0.27-0.04-0.522-0.064-0.773-0.064c-2.465,0-3.878,2.139-3.878,4.136c0,1.142,0.444,2.323,1.377,3.235
	c0.718,0.698,1.434,0.868,1.434,0.868c-0.794,1.552-1.63,3.472-4.188,3.472h-0.005c-0.767,0-0.926-0.422-0.926-0.713
	c0-0.254,0.077-0.506,0.154-0.68l1.648-3.955c0.021-0.021,0.021-0.057,0.021-0.078c0-0.271-0.601-0.504-1.203-0.504
	c-0.659,0-1.106,0.271-1.22,0.582l-0.115,0.311c-0.427-0.66-1.051-0.893-1.768-0.893c-2.886,0-4.784,2.924-4.981,4.982
	c-0.66,0.525-1.394,0.967-1.919,0.967c-0.367,0-0.6-0.268-0.6-0.636c0-0.271,0.098-0.56,0.137-0.66l0.541-1.318
	c0.252-0.622,0.369-1.146,0.369-1.59c0-1.397-0.97-1.765-2.113-1.765c-0.66,0-1.299,0.31-1.299,0.31l2.113-5.098
	c0.019-0.019,0.019-0.058,0.019-0.08c0-0.272-0.601-0.504-1.183-0.504c-0.678,0-1.066,0.274-1.2,0.584l-3.142,7.716
	c-0.427,1.219-2.791,3.235-4.187,3.235c-1.455,0-1.919-1.063-1.919-1.858c0-0.252,0.058-0.523,0.117-0.736
	c0.154-0.485,0.773-1.703,1.898-1.703c0.718,0,0.932,0.365,0.932,0.752c0,0.271-0.118,0.543-0.254,0.68l0.447,0.329
	c1.083-0.427,1.452-1.202,1.452-1.843c0-1.202-1.278-1.783-2.517-1.783c-1.594,0-4.346,1.065-4.48,4.305c0,0.194,0,0.368,0.02,0.543
	c-0.893,0.854-2.17,1.455-3.217,1.455c-0.816,0-1.515-0.566-1.707-1.24c2.771-0.68,4.089-1.979,4.089-3.163
	c0-1.318-1.2-1.88-2.344-1.88c-2.114,0-4.4,1.551-4.4,3.994c0,2.25,1.685,3.704,3.972,3.704c1.417,0,3.025-0.697,4.053-1.59
	c0.815,1.315,2.48,1.547,3.412,1.547c0.949,0,2.285-0.345,3.371-1.745l-0.601,1.203c-0.02,0.037-0.02,0.062-0.02,0.102
	c0,0.309,0.641,0.44,1.283,0.44c0.618,0,1.142-0.267,1.219-0.542c0.076-0.369,0.854-2.07,0.872-2.188l1.203-2.885
	c0.485-0.412,0.871-0.548,1.144-0.548c0.522,0,0.638,0.426,0.638,0.62c0,0.176-0.057,0.312-0.115,0.423l-0.775,1.924
	c-0.135,0.35-0.213,0.718-0.213,1.01c0,1.784,1.376,2.187,2.151,2.187c1.146,0,2.055-0.581,2.985-1.28
	c0.293,0.646,0.892,1.223,1.939,1.223c1.046,0,2.189-0.33,3.121-1.145c0.445,0.893,0.863,1.164,2.928,1.164
	c4.107,0,4.981-2.246,6.3-4.554c0.89,0.247,1.007,1.435,1.007,2.056c0,0.209-0.018,0.35-0.018,0.35c0,1.125,0.752,2.109,2.714,2.109
	c0.967,0,1.839-0.137,3.083-1.082c0.328,0.945,1.354,1.184,1.762,1.184c1.552,0,2.83-1.07,2.83-1.07
	c0-0.035,0.389,1.046,1.727,1.046c1.607,0,2.228-0.635,3.354-1.411c0.832,1.18,2.423,1.411,3.312,1.411
	c1.106,0,2.908-0.774,3.375-1.804l-0.562,1.262c-0.02,0.037-0.02,0.077-0.02,0.102c0,0.309,0.641,0.44,1.26,0.44
	c0.639,0,1.124-0.325,1.203-0.597c0.097-0.373,0.815-2.016,0.834-2.134l1.202-2.885c0.484-0.412,0.871-0.548,1.145-0.548
	c0.52,0,0.636,0.426,0.636,0.62c0,0.176-0.058,0.312-0.116,0.423l-0.771,1.924c-0.136,0.35-0.195,0.68-0.195,0.971
	c0,1.785,1.357,2.226,2.132,2.226h0.004c0.005,0,0.006,0,0.006-0.007c1.118-0.016,2.021-0.586,2.931-1.273
	c0.293,0.637,0.895,1.219,1.941,1.219c1.043,0,2.192-0.326,3.121-1.141c0.447,0.893,1.279,1.164,2.131,1.164h0.006
	c0.664,0,1.246-0.156,2.679-1.094c-1.302,3.754,3.992,5.229,5.653,1.777c0.792-1.646,2.35-5.137,2.52-5.532
	c0.559,0.655,3.344,3.468,4.186,4.418l0.214,0.241l0.123-0.299c0.525-1.277,1.047-2.588,1.595-3.98
	c0.863-2.181,2.755-6.698,2.794-6.787c0.317-0.761,0.548-1.203,1.346-1.133c0,0,0.364,0.109,0.71-0.709
	c0.089-0.354,0.023-0.656-0.188-0.695c-0.138-0.023-0.601-0.074-0.783-0.074c-0.392,0-0.954,0.043-1.433,0.265
	C114.731,6.983,114.308,7.612,113.968,8.343"/>
</svg>
