<?xml version="1.0" encoding="utf-8"?>
<!-- Generator: Adobe Illustrator 16.0.4, SVG Export Plug-In . SVG Version: 6.00 Build 0)  -->
<!DOCTYPE svg PUBLIC "-//W3C//DTD SVG 1.1//EN" "http://www.w3.org/Graphics/SVG/1.1/DTD/svg11.dtd">
<svg version="1.1" id="Layer_1" xmlns="http://www.w3.org/2000/svg" xmlns:xlink="http://www.w3.org/1999/xlink" x="0px" y="0px"
	 width="20px" height="20px" viewBox="0 0 20 20" enable-background="new 0 0 20 20" xml:space="preserve">
<g id="Logo">
</g>
<g>
	<path d="M17.643,17.34l-4.761-4.762c-1.04,0.881-2.4,1.421-3.881,1.421C5.68,13.999,3,11.318,3,7.998
		C3,4.677,5.68,1.996,9.001,1.996s6.001,2.681,6.001,6.002c0,1.48-0.541,2.84-1.42,3.881l4.781,4.78L17.643,17.34z M14.002,7.998
		c0-2.762-2.24-5.002-5.001-5.002S4,5.236,4,7.998c0,2.76,2.24,5,5.001,5S14.002,10.758,14.002,7.998z"/>
</g>
</svg>
