<?xml version="1.0" encoding="utf-8"?>
<!-- Generator: Adobe Illustrator 16.0.4, SVG Export Plug-In . SVG Version: 6.00 Build 0)  -->
<!DOCTYPE svg PUBLIC "-//W3C//DTD SVG 1.1//EN" "http://www.w3.org/Graphics/SVG/1.1/DTD/svg11.dtd">
<svg version="1.1" id="Layer_1" xmlns="http://www.w3.org/2000/svg" xmlns:xlink="http://www.w3.org/1999/xlink" x="0px" y="0px"
	 width="20px" height="20px" viewBox="0 0 20 20" enable-background="new 0 0 20 20" xml:space="preserve">
<g id="Logo">
</g>
<path d="M18.5,5.039c-0.588,0.26-1.221,0.438-1.887,0.518c0.68-0.406,1.199-1.049,1.445-1.816c-0.637,0.375-1.338,0.65-2.086,0.797
	C15.375,3.898,14.52,3.5,13.576,3.5c-1.812,0-3.281,1.469-3.281,3.283c0,0.256,0.027,0.508,0.084,0.748
	C7.65,7.393,5.232,6.086,3.613,4.1C3.33,4.584,3.17,5.148,3.17,5.75c0,1.139,0.578,2.143,1.459,2.732
	c-0.537-0.018-1.043-0.166-1.486-0.41c0,0.014,0,0.027,0,0.041c0,1.592,1.131,2.918,2.633,3.219
	c-0.275,0.074-0.564,0.115-0.863,0.115c-0.211,0-0.418-0.021-0.617-0.059c0.418,1.303,1.629,2.252,3.066,2.277
	c-1.125,0.881-2.541,1.406-4.078,1.406c-0.266,0-0.525-0.016-0.783-0.047C3.953,15.957,5.68,16.5,7.533,16.5
	c6.037,0,9.34-5.002,9.34-9.34c0-0.141-0.004-0.285-0.012-0.424C17.502,6.275,18.061,5.697,18.5,5.039z"/>
</svg>
