<?xml version="1.0" encoding="utf-8"?>
<!-- Generator: Adobe Illustrator 16.0.4, SVG Export Plug-In . SVG Version: 6.00 Build 0)  -->
<!DOCTYPE svg PUBLIC "-//W3C//DTD SVG 1.1//EN" "http://www.w3.org/Graphics/SVG/1.1/DTD/svg11.dtd">
<svg version="1.1" id="Layer_1" xmlns="http://www.w3.org/2000/svg" xmlns:xlink="http://www.w3.org/1999/xlink" x="0px" y="0px"
	 width="20px" height="20px" viewBox="0 0 20 20" enable-background="new 0 0 20 20" xml:space="preserve">
<g id="Logo">
</g>
<path d="M12.322,12.487c-0.458,0.674-1.452,1.33-2.695,1.33c-2.16,0-3.535-1.677-3.535-3.722c0-2.043,1.375-3.72,3.535-3.72
	c0.995,0,1.854,0.423,2.39,1.177V6.55h1.529v4.164c0,1.06,0.498,1.599,1.186,1.599c1.11,0,1.645-1.001,1.645-2.892
	c0-3.393-2.6-5.879-6.308-5.879c-3.785,0-6.347,2.815-6.347,6.554c0,3.624,2.753,6.267,6.519,6.267c3.575,0,5.678-1.929,5.678-1.929
	v1.812c0,0-1.874,1.754-5.678,1.754C5.46,18,2,14.703,2,10.096C2,5.585,5.269,2,10.067,2C14.826,2,18,5.257,18,9.421
	c0,2.949-1.548,4.396-3.364,4.396C13.661,13.817,12.781,13.315,12.322,12.487z M7.792,10.096c0,1.196,0.726,2.18,2.122,2.18
	c1.32,0,2.103-0.983,2.103-2.18V10.02c-0.038-1.157-0.821-2.102-2.103-2.102C8.518,7.918,7.792,8.901,7.792,10.096z"/>
</svg>
