<?xml version="1.0" encoding="utf-8"?>
<!-- Generator: Adobe Illustrator 16.0.4, SVG Export Plug-In . SVG Version: 6.00 Build 0)  -->
<!DOCTYPE svg PUBLIC "-//W3C//DTD SVG 1.1//EN" "http://www.w3.org/Graphics/SVG/1.1/DTD/svg11.dtd">
<svg version="1.1" id="Layer_1" xmlns="http://www.w3.org/2000/svg" xmlns:xlink="http://www.w3.org/1999/xlink" x="0px" y="0px"
	 width="20px" height="20px" viewBox="0 0 20 20" enable-background="new 0 0 20 20" xml:space="preserve">
<g id="Logo">
</g>
<path d="M10.138,8.996c-0.002,0.797,0,1.592,0.002,2.387c1.334,0.043,2.67,0.023,4.004,0.043c-0.59,2.959-4.613,3.916-6.74,1.984
	C5.214,11.717,5.32,8,7.593,6.428c1.592-1.271,3.854-0.957,5.444,0.143c0.626-0.578,1.21-1.197,1.774-1.836
	c-1.322-1.057-2.947-1.809-4.674-1.729C6.531,2.885,3.216,6.045,3.158,9.65c-0.23,2.947,1.708,5.838,4.445,6.881
	c2.726,1.051,6.223,0.334,7.965-2.115c1.146-1.547,1.395-3.539,1.26-5.41C14.595,8.988,12.367,8.992,10.138,8.996z"/>
</svg>
