<?xml version="1.0" encoding="utf-8"?>
<!-- Generator: Adobe Illustrator 16.0.4, SVG Export Plug-In . SVG Version: 6.00 Build 0)  -->
<!DOCTYPE svg PUBLIC "-//W3C//DTD SVG 1.1//EN" "http://www.w3.org/Graphics/SVG/1.1/DTD/svg11.dtd">
<svg version="1.1" id="Layer_1" xmlns="http://www.w3.org/2000/svg" xmlns:xlink="http://www.w3.org/1999/xlink" x="0px" y="0px"
	 width="20px" height="20px" viewBox="0 0 20 20" enable-background="new 0 0 20 20" xml:space="preserve">
<g id="Logo">
</g>
<g>
	<path d="M18.689,5.745c-0.22-0.958-1.003-1.663-1.946-1.769c-2.232-0.25-4.491-0.25-6.74-0.25c-2.25,0-4.509,0-6.741,0.25
		C2.32,4.082,1.538,4.787,1.317,5.745C1.003,7.108,1,8.596,1,10s0,2.892,0.314,4.255c0.22,0.956,1.002,1.663,1.945,1.769
		c2.232,0.25,4.491,0.25,6.741,0.25s4.508,0,6.74-0.25c0.942-0.105,1.726-0.812,1.946-1.769C18.999,12.892,19,11.404,19,10
		S19.002,7.108,18.689,5.745z M7.677,12.794c0-1.991,0-3.962,0-5.952c1.908,0.994,3.803,1.983,5.722,2.984
		C11.486,10.819,9.59,11.803,7.677,12.794z"/>
</g>
</svg>
