<?xml version="1.0" encoding="UTF-8"?><!DOCTYPE svg PUBLIC "-//W3C//DTD SVG 1.1//EN" "http://www.w3.org/Graphics/SVG/1.1/DTD/svg11.dtd"><svg xmlns="http://www.w3.org/2000/svg"><symbol id="arrow-left" viewBox="0 0 20 20"><path d="M12.646 18.354L4.293 10l8.353-8.354.707.708L5.707 10l7.647 7.646z"/></symbol><symbol id="arrow-right" viewBox="0 0 20 20"><path d="M7.354 18.354l-.707-.708L14.293 10 6.646 2.354l.708-.708L15.707 10z"/></symbol><symbol id="badge" viewBox="0 0 100 100"><path d="M26.68 36.312c-.015-.191-.178-.412-.504-.412-.305 0-1.256.385-1.256 1.364 0 .147.027.31.084.474 1.32-.63 1.676-1.047 1.676-1.426zm34.132 45.661c0-.279-.184-.457-.521-.457h-.371v.912h.371c.338 0 .521-.179.521-.455zM45.631 35.654c-.82 0-2.271 1.398-2.271 2.807 0 .379.174.66.529.66.674 0 1.303-.45 1.586-.803l.892-2.137c-.137-.433-.455-.527-.736-.527zM58.176 81.66l-.43 1.116h.861l-.431-1.116zm-21.44-36.395c-2.148 0-3.812 1.729-3.812 3.835 0 2.109 1.664 3.832 3.812 3.832 2.15 0 3.81-1.723 3.81-3.832 0-2.107-1.659-3.835-3.81-3.835zM49.605.002C21.992.219-.216 22.78.002 50.395a50.024 50.024 0 0 0 2.324 14.714h95.339a49.953 49.953 0 0 0 2.333-15.503C99.779 21.994 77.219-.217 49.605.002zM73.842 21.52l1.082 1.98 1.082-1.98h.785l-1.514 2.682v1.746h-.757v-1.746l-1.514-2.682h.836zm-4.18 0h3.203v.719h-1.221v3.709h-.76v-3.709h-1.223v-.719zm-1.406 0h.76v4.428h-.76V21.52zm-2.377-.079c1.064 0 1.641.695 1.641.695l-.512.502s-.399-.488-1.129-.488c-.872 0-1.475.728-1.475 1.582s.603 1.582 1.475 1.582c.779 0 1.197-.543 1.197-.543l.508.501s-.584.752-1.705.752c-1.277 0-2.246-.983-2.246-2.292 0-1.31.969-2.291 2.246-2.291zm-8.162.077h1.432c1.291 0 2.189.938 2.189 2.215s-.898 2.215-2.189 2.215h-1.432v-4.43zm-3.457.002h2.686v.719H55.02v1.076h1.771v.721H55.02v1.191h1.961v.721H54.26V21.52zm-2.364 2.581c-.65-.227-1.385-.585-1.385-1.405 0-.627.557-1.254 1.45-1.254.923 0 1.442.703 1.442.703l-.526.52s-.366-.502-.916-.502c-.382 0-.679.234-.679.533 0 .387.348.505.955.734.678.251 1.242.557 1.242 1.361 0 .802-.71 1.233-1.547 1.233-1.107 0-1.619-.907-1.619-.907l.57-.479s.379.664 1.049.664c.381 0 .773-.154.773-.512.002-.374-.283-.509-.809-.689zm-3.189-2.581h.76v4.428h-.76V21.52zm-3.781-.002h1.457c.879 0 1.466.569 1.466 1.379 0 .667-.353 1.172-.986 1.329l1.106 1.722h-.885l-1.051-1.671h-.348v1.671h-.76v-4.43zm-2.927-.077c1.291 0 2.239.98 2.239 2.291s-.948 2.292-2.239 2.292c-1.292 0-2.241-.981-2.241-2.292s.949-2.291 2.241-2.291zm-6.341.077h.762v1.805h1.893v-1.805h.76v4.429h-.76v-1.904H36.42v1.904h-.762v-4.429zm-3.76.002h3.203v.719H33.88v3.709h-.762v-3.709h-1.221v-.719zm-3.978-.002h.76v2.728c0 .634.316 1.058.949 1.058.625 0 .951-.424.951-1.058v-2.728h.76v2.824c0 .971-.668 1.683-1.711 1.683-1.045 0-1.709-.712-1.709-1.683v-2.824zm-3.004 0h.773l1.723 4.43h-.768l-.404-1.051h-1.875l-.404 1.051h-.766l1.721-4.43zM19.59 37.074c-.236 0-.41-.01-.41.021l-.488 1.42c-.469 1.395-1.322 1.923-2.578 1.93-.973 0-1.941-.592-2.117-.768a.429.429 0 0 1-.059-.248c0-.277.266-.779.467-.779l.066.03c.521.283 1.109.487 1.596.487.529 0 .748-.309.896-.652.1-.245.391-.76.584-1.758 0 0-.484-.089-.924-.615-.311-.385-.412-.912-.414-1.261 0-1.149.866-1.708 1.82-1.708.721 0 1.645.514 1.645 1.48.004.75-.289 1.457-.35 1.527l.162.016c1.053 0 2.609-1.131 2.609-2.701 0-.629-.717-1.85-2.641-1.85-1.705 0-3.379.398-4.715 1.131-.305 0-.615-.496-.615-.559a1.14 1.14 0 0 1-.117-.451c0-.133.027-.219.088-.235 1.555-.725 3.273-1.491 5.65-1.491 1.541 0 4.373.739 4.377 3.086 0 1.102-.573 2.188-1.555 2.924-1.028.768-2.098 1.024-2.977 1.024zm7.898 8.191c-1.154 0-2.01.791-2.376 1.826l-.954-.407c.549-1.478 1.748-2.454 3.33-2.454 1.844 0 3.219 1.198 3.219 3.145 0 1.06-.648 1.784-1.129 2.331-.166.186-3.021 3.043-3.021 3.043h4.44v.973h-6.94l4.075-3.935c.691-.667 1.482-1.479 1.482-2.412.001-1.297-.807-2.11-2.126-2.11zM24.92 59.591h-.498v-2.89h.498v2.89zm3.805 0h-.495v-1.942l-.904 1.371-.9-1.371v1.942h-.496v-2.89h.459l.938 1.453.941-1.453h.457v2.89zm2.929 0l-.268-.685h-1.221l-.262.685h-.502l1.127-2.89h.504l1.117 2.89h-.495zm3.563-.32s-.367.365-1.072.365c-.844 0-1.518-.633-1.518-1.494 0-.855.654-1.492 1.502-1.492.709 0 1.068.434 1.068.434l-.34.33s-.238-.303-.729-.303c-.584 0-.996.477-.996 1.031 0 .559.434 1.037 1.012 1.037.414 0 .586-.143.586-.143v-.613h-.656v-.459h1.143v1.307zm2.635.32H36.08v-2.89h1.754v.468h-1.262v.702h1.161v.47h-1.161v.776h1.279v.474zm1.765.046c-.721 0-1.055-.588-1.055-.588l.371-.316s.25.438.684.438c.252 0 .506-.098.506-.34 0-.238-.186-.33-.525-.451-.432-.146-.907-.377-.907-.916 0-.402.36-.814.946-.814.6 0 .938.461.938.461l-.339.333s-.244-.323-.6-.323c-.25 0-.441.152-.441.344 0 .256.227.336.623.482.439.168.809.359.809.885 0 .524-.463.805-1.01.805zm-2.881-5.671c-2.756 0-4.904-2.112-4.904-4.866 0-2.76 2.148-4.87 4.904-4.87 2.758 0 4.906 2.11 4.906 4.87.001 2.754-2.148 4.866-4.906 4.866zm17.737-.64l-.738.736-4.089-4.088-4.091 4.088-.738-.736 4.092-4.09-4.092-4.088.738-.736 4.091 4.088 4.089-4.088.738.736-4.092 4.088 4.092 4.09zm3.308 6.311c-.723 0-1.059-.588-1.059-.588l.373-.316s.245.438.686.438c.246 0 .502-.098.502-.34 0-.238-.182-.33-.529-.451-.426-.146-.901-.377-.901-.916 0-.402.36-.814.944-.814.602 0 .941.461.941.461l-.344.333s-.238-.323-.598-.323c-.246 0-.447.152-.447.344 0 .256.234.336.629.482.439.168.812.359.812.885.001.524-.466.805-1.009.805zm3.112-14.372c-1.158 0-2.012.791-2.373 1.826l-.954-.407c.547-1.478 1.745-2.454 3.327-2.454 1.842 0 3.223 1.198 3.223 3.145 0 1.06-.648 1.784-1.133 2.331-.163.186-3.024 3.043-3.024 3.043H64.4v.973h-6.936l4.075-3.935c.692-.667 1.476-1.479 1.476-2.412.001-1.297-.804-2.11-2.122-2.11zm.216 14.326h-1.77v-2.89h1.746v.468h-1.254v.702h1.156v.47h-1.156v.776h1.277v.474zm1.829.046c-.838 0-1.471-.633-1.471-1.496 0-.852.633-1.49 1.471-1.49.689 0 1.062.459 1.062.459l-.332.323s-.26-.321-.73-.321c-.576 0-.963.477-.963 1.029 0 .557.387 1.039.963 1.039.5 0 .775-.36.775-.36l.332.323s-.385.494-1.107.494zm2.824 0c-.84 0-1.461-.635-1.461-1.496 0-.854.621-1.492 1.461-1.492s1.459.639 1.459 1.492c0 .861-.619 1.496-1.459 1.496zm4.334-.045h-.446l-1.443-1.994v1.994h-.498v-2.891h.447l1.447 1.988v-1.988h.492v2.891zM65.234 49.1c0-2.758 2.148-4.87 4.904-4.87 2.76 0 4.906 2.112 4.906 4.87 0 2.754-2.146 4.866-4.906 4.866-2.755 0-4.904-2.112-4.904-4.866zm6.452 10.491h-.936v-2.89h.936c.84 0 1.427.611 1.427 1.439-.001.839-.588 1.451-1.427 1.451zm2.853.046c-.723 0-1.056-.588-1.056-.588l.374-.316s.246.438.682.438c.252 0 .506-.098.506-.34 0-.238-.182-.33-.527-.451-.422-.146-.904-.377-.904-.916 0-.402.361-.814.944-.814.603 0 .94.461.94.461l-.342.333s-.24-.323-.599-.323c-.247 0-.442.152-.442.344 0 .256.227.336.623.482.444.168.815.359.815.885.001.524-.467.805-1.014.805zm11.143-20.705c-1.566 1.195-2.385 1.416-2.99 1.416-.351 0-.916-.164-1.357-.877a3.586 3.586 0 0 1-2.363.867c-.795 0-1.25-.441-1.469-.925-.693.518-1.373.954-2.219.966l-.002.01h-.008c-.584 0-1.613-.34-1.613-1.693 0-.221.039-.465.145-.734l.586-1.455a.697.697 0 0 0 .088-.324c0-.143-.088-.465-.486-.465-.203 0-.5.104-.865.408l-.906 2.193c-.017.084-.557 1.336-.633 1.612-.059.205-.426.458-.908.458-.473 0-.956-.105-.956-.34l.017-.072.426-.953c-.354.773-1.719 1.365-2.557 1.365-.676 0-1.881-.176-2.51-1.073-.854.589-1.32 1.075-2.537 1.075-1.018 0-1.307-.818-1.307-.792 0 0-.971.804-2.145.811-.311 0-1.087-.175-1.336-.898-.941.724-1.6.827-2.332.827-1.486 0-2.056-.75-2.056-1.6 0 0 .013-.104.013-.268 0-.467-.092-1.362-.768-1.557-.995 1.75-1.656 3.453-4.768 3.453h-.004c-1.439 0-1.875-.205-2.215-.885-.699.623-1.57.873-2.359.873-.793 0-1.25-.438-1.471-.928-.704.535-1.396.975-2.26.975-.59 0-1.628-.307-1.628-1.66 0-.225.056-.498.159-.762l.588-1.455a.725.725 0 0 0 .084-.322c0-.149-.086-.473-.486-.473-.203 0-.494.104-.862.412l-.909 2.189c-.016.094-.602 1.381-.662 1.66-.057.205-.451.41-.922.41-.485 0-.969-.101-.969-.334l.012-.076.455-.906c-.818 1.057-1.832 1.316-2.553 1.323-.703 0-1.969-.179-2.584-1.175-.781.67-1.998 1.197-3.07 1.197-1.729.008-3.006-1.096-3.01-2.797-.004-1.852 1.732-3.025 3.329-3.025.868 0 1.776.426 1.776 1.425 0 .892-.996 1.878-3.094 2.392.145.516.674.938 1.291.938.793 0 1.766-.451 2.438-1.098-.013-.141-.013-.269-.013-.416.102-2.449 2.185-3.256 3.389-3.256.938 0 1.91.441 1.91 1.346 0 .484-.277 1.074-1.103 1.395l-.339-.248a.778.778 0 0 0 .192-.514c0-.291-.163-.572-.703-.572-.854.004-1.325.926-1.437 1.291a2.109 2.109 0 0 0-.094.559c0 .605.358 1.408 1.457 1.408 1.055 0 2.846-1.524 3.168-2.451l2.377-5.843c.104-.235.396-.442.912-.442.439-.002.892.174.892.379l-.013.063-1.6 3.86s.484-.236.987-.236c.864 0 1.599.277 1.599 1.334 0 .338-.086.737-.279 1.203l-.41 1a1.517 1.517 0 0 0-.104.497c0 .278.178.489.453.489.4 0 .959-.338 1.455-.738.147-1.553 1.586-3.766 3.769-3.766.546 0 1.018.167 1.341.668l.088-.237c.09-.234.422-.439.925-.439.454 0 .91.176.91.378l-.015.062-1.245 2.995a1.33 1.33 0 0 0-.122.512c0 .223.129.546.709.546 1.934 0 2.567-1.456 3.168-2.632 0 0-.545-.129-1.086-.656a3.435 3.435 0 0 1-1.045-2.449c0-1.514 1.072-3.13 2.936-3.13.191 0 .383.011.587.042.497.056 1.778.573 1.778 2.334.002.795-.499 2.702-1.203 3.395.072-.016.09.014.221-.031.732-.234 2.434-1.599 3.896-4.98.102-.236.428-.439.984-.439.482 0 .969.176.969.385l-.014.051c-.086.195-1.859 3.98-4.734 5.719 1.41.732.516 2.394 1.674 2.389.484 0 1.088-.308 1.75-.894l.025-.077c.604-1.515.688-1.67.688-1.686.076-.189.174-.422.174-.508 0-.191-.131-.379-.365-.379h-.678c-.176 0-.188-.092-.188-.15 0-.25.307-.785.909-.785h.837c1.025 0 1.35.489 1.35.961 0 .189-.127.523-.201.697l-.734 1.78c-.07.187-.129.349-.129.497 0 .41.275.543.629.543.25 0 .762-.338.762-.338l1.521-3.71c.105-.234.38-.439.867-.439.428 0 .863.176.867.386l-.016.054c-1.057 2.608-1.213 2.913-1.213 2.913-.102.268-.162.475-.162.635 0 .279.195.484.485.484.413 0 .851-.165 1.411-.676a3.215 3.215 0 0 1-.047-.561c.104-2.451 2.188-3.26 3.393-3.26.938 0 1.906.438 1.91 1.348 0 .486-.283 1.078-1.101 1.395l-.342-.246c.106-.102.19-.309.19-.512 0-.299-.154-.576-.701-.576-.854 0-1.324.93-1.439 1.293-.045.158-.09.369-.09.559 0 .605.352 1.41 1.459 1.404.864 0 2.754-1.3 3.049-2.229l2.453-6.031c.105-.236.396-.441.91-.441.439 0 .896.175.896.38l-.019.062-1.583 3.825s.48-.229.982-.229c.91 0 1.558.291 1.558 1.389 0 .326-.118.693-.28 1.148l-.363 1.002a1.353 1.353 0 0 0-.109.496c0 .271.172.465.432.481.398-.005.951-.343 1.449-.741.145-1.545 1.58-3.768 3.768-3.771.544 0 1.016.179 1.336.675l.09-.235c.09-.228.426-.439.924-.439.459 0 .909.179.909.38l-.009.06-1.25 2.995a1.336 1.336 0 0 0-.113.52c0 .51.256.529.443.529.719 0 2.086-1.075 2.086-1.075.115 0 .287.186.287.425.003.242.003.432-.112.514zm.931-4.07h-.324v1.009h-.176v-1.009h-.316v-.169h.816v.169zm1.367 1.011h-.173v-.85l-.4.664-.401-.664v.85h-.178v-1.178h.178l.401.656.4-.656h.173v1.178zM38.484 90.377h.861l-.431-1.116-.43 1.116zm22.143-4.916l-.432 1.114h.861l-.429-1.114zm-.834 4.112c0-.276-.182-.457-.52-.457h-.369v.913h.369c.338 0 .52-.179.52-.456zm-9.397 10.425c18.4-.146 34.391-10.219 42.953-25.092H6.65c8.703 15.115 25.062 25.241 43.746 25.092zM37.385 85.029h.339l.673 1.235.665-1.235h.319l-.848 1.525v.987h-.301v-.987l-.847-1.525zm2.332 6.315l-.262-.678h-1.082l-.262.678h-.324l.988-2.514h.279l.98 2.514h-.317zm1.853 0l-.678-1.028h-.234v1.028h-.301V88.83h.652c.5 0 .842.294.842.743 0 .596-.543.706-.613.716l.695 1.055h-.363zm1.856.043c-.725 0-1.242-.576-1.242-1.301s.518-1.299 1.242-1.299c.588 0 .9.385.9.385l-.206.196s-.234-.294-.694-.294c-.547 0-.919.477-.919 1.012s.372 1.013.919 1.013c.455 0 .725-.334.725-.334l.203.21s-.34.412-.928.412zm.841-4.131v.286h-1.431v-2.513h.301v2.227h1.13zm1.684-1.147v.287h-1.062v.859h1.172v.286h-1.473V85.03h1.451v.286h-1.15v.792h1.062zm.633 5.235h-.303v-1.146h-1.258v1.146h-.301V88.83h.301v1.08h1.258v-1.08h.303v2.514zm.308-3.803h-.301v-2.512h.301v2.512zm.633 3.802h-.303V88.83h.303v2.513zm2.139-2.226h-.723v2.227h-.3v-2.227h-.724v-.289h1.746v.289zm1.815 2.227h-1.471V88.83h1.451v.287h-1.15v.793h1.064v.288h-1.064v.858h1.17v.288zm1.564.043c-.725 0-1.24-.576-1.24-1.301s.516-1.299 1.24-1.299c.59 0 .901.385.901.385l-.207.196s-.234-.294-.694-.294c-.544 0-.918.477-.918 1.012s.374 1.013.918 1.013c.457 0 .725-.334.725-.334l.207.21s-.342.412-.932.412zm2.795-2.27h-.721v2.227h-.301v-2.227h-.723v-.289h1.744v.289zm2.176 1.298c0 .571-.34.972-.914.972-.576 0-.916-.4-.916-.972V88.83h.301v1.554c0 .405.18.716.615.716.434 0 .613-.311.613-.716V88.83h.301v1.585zm.861-4.306v-1.08h.303v2.513h-.303v-1.146h-1.26v1.146h-.301v-2.513h.301v1.08h1.26zm.941 5.235l-.679-1.028h-.233v1.028h-.303V88.83h.654c.5 0 .84.294.84.743 0 .596-.543.706-.613.716l.695 1.055h-.361zm2.243 0h-1.473V88.83h1.451v.287h-1.15v.793h1.064v.288h-1.064v.858h1.172v.288zm1.498-10.115h.721c.779 0 1.242.531 1.242 1.255 0 .726-.463 1.259-1.242 1.259h-.721v-2.514zm.541 3.8h.291v2.513h-.301v-1.966l-.859 1.395-.858-1.393v1.964h-.3v-2.513h.3l.866 1.402.861-1.402zm-2.494-3.8h1.451v.287h-1.148v.794h1.062v.288h-1.062v.855h1.17v.289h-1.473v-2.513zm-1.985 0h.652c.502 0 .842.295.842.744 0 .594-.541.705-.613.716l.697 1.054h-.365l-.678-1.027h-.234v1.027h-.301v-2.514zm.867 3.8h.281l.979 2.513h-.314l-.264-.677h-1.084l-.262.677h-.323l.987-2.513zm-2.449-3.8h.279l.98 2.514h-.316l-.262-.68h-1.082l-.264.68h-.324l.989-2.514zm-1.067 4.088h-.722v2.225h-.303v-2.225h-.721v-.288h1.745v.288zm-2.105-4.088h.301v1.081h1.26v-1.081h.303v2.514h-.303v-1.146h-1.26v1.146h-.301v-2.514zm.268 3.8l-.85 1.525v.987h-.299v-.987l-.85-1.525h.34l.675 1.235.663-1.235h.321zm-1.545-2.419c-.367-.169-.691-.337-.691-.765 0-.293.245-.661.725-.661.475 0 .717.368.717.368l-.227.182s-.176-.262-.49-.262c-.275 0-.421.195-.421.373 0 .256.215.356.56.514.383.176.623.338.623.744 0 .408-.338.681-.779.681-.594 0-.799-.522-.799-.522l.252-.151s.148.388.547.388c.241 0 .471-.137.471-.395-.002-.264-.209-.365-.488-.494zm-.541 3.675c0 .725-.463 1.257-1.242 1.257h-.721v-2.513h.721c.779 0 1.242.533 1.242 1.256zm-3.524-4.524c0-.273.227-.576.633-.576s.631.308.631.576c0 .212-.07.344-.449.656l.629.566s.095-.117.095-.62h.28c0 .56-.158.811-.158.811l.438.396-.184.215-.432-.381c-.176.22-.498.381-.844.381-.494 0-.8-.292-.8-.591 0-.278.101-.439.538-.781-.285-.259-.377-.431-.377-.652zm-.334 3.268h.302v2.513h-.312l-1.347-2.012v2.012h-.301v-2.513h.312l1.346 2.012v-2.012zM46 81.229h.721c.779 0 1.242.531 1.242 1.255 0 .726-.463 1.259-1.242 1.259H46v-2.514zm-1.951 0h1.449v.287H44.35v.794h1.062v.288H44.35v.855h1.17v.289h-1.471v-2.513zm-1.278 1.381c-.366-.169-.69-.337-.69-.765 0-.293.244-.661.727-.661.473 0 .715.368.715.368l-.227.182s-.176-.262-.488-.262c-.277 0-.424.195-.424.373 0 .256.215.356.561.514.383.176.625.338.625.744 0 .408-.34.681-.779.681-.596 0-.801-.522-.801-.522l.252-.151s.148.388.549.388c.24 0 .469-.137.469-.395-.002-.264-.209-.365-.489-.494zm-1.609-1.381h.303v2.512h-.303v-2.512zm.879 3.8h.383l-1.061 1.227 1.18 1.286h-.408l-1.11-1.199v1.199h-.302v-2.513h.302v1.182l1.016-1.182zm-3.002-3.802l.725 1.843.729-1.843h.312l-1.049 2.587-1.047-2.587h.33zm-2.002.002h1.449v.287h-1.15v.794h1.062v.288h-1.062v.855h1.17v.289h-1.469v-2.513zm.049 4.486c0 .342-.25.484-.285.491.035.008.42.118.42.618 0 .438-.324.718-.818.718h-.787v-2.513h.662c.517 0 .808.266.808.686zm-2.445-4.486h.721c.78 0 1.244.531 1.244 1.255 0 .726-.464 1.259-1.244 1.259h-.721v-2.514zm25.925-57.497c0-.811-.545-1.494-1.404-1.494h-.686v2.988h.686c.859.001 1.404-.689 1.404-1.494zM30.342 58.447h.869l-.434-1.123-.435 1.123zm50.973-22.806c-.82 0-2.272 1.395-2.272 2.803 0 .381.178.662.525.662.678 0 1.311-.457 1.588-.809l.895-2.136c-.131-.432-.455-.52-.736-.52zM65.197 82.483c0-.534-.324-.968-.938-.968h-.402v1.938h.402c.614 0 .938-.433.938-.97zM51.66 31.22c-.525.046-.848 1.175-.89 1.497-.017.093-.017.19-.017.293.002 1.811.793 2.566.941 2.582 0 0 .84-1.215.834-3.024 0-.098-.014-.205-.014-.308-.015-.278-.293-1.04-.854-1.04zm-4.019 51.263c0-.534-.322-.968-.936-.968h-.402v1.938h.402c.613 0 .936-.433.936-.97zM17.576 34.111c-.365 0-.572.409-.572.74 0 .379.246.834.836 1.008l.177-1.102c0-.423-.193-.646-.441-.646zm23.975 55.462c0-.276-.185-.457-.521-.457h-.371v.913h.371c.336 0 .521-.179.521-.456zm-5.633-3.46h.41c.281 0 .455-.154.455-.398s-.174-.397-.455-.397h-.41v.795zm29.844-28.994c-.582 0-.955.469-.955 1.021 0 .561.373 1.029.955 1.029.584 0 .954-.469.954-1.029 0-.552-.37-1.021-.954-1.021zM25.303 22.471l-.664 1.73h1.33l-.666-1.73zm10.615 63.922v.863h.484c.359 0 .518-.193.518-.432 0-.237-.158-.432-.518-.432h-.484zm16.807-.108c0-.535-.324-.97-.938-.97h-.401v1.94h.401c.613.001.938-.436.938-.97zm17.414-41.02c-2.148 0-3.811 1.729-3.811 3.835 0 2.109 1.662 3.832 3.811 3.832 2.146 0 3.814-1.723 3.814-3.832 0-2.107-1.668-3.835-3.814-3.835zM50.162 83.504c.252 0 .504-.11.645-.283l-.693-.617-.01.01c-.303.25-.438.37-.438.544-.001.248.262.346.496.346zm-13.881-1.021c0-.534-.322-.968-.936-.968h-.402v1.938h.402c.614 0 .936-.433.936-.97zm10.795-59.587c0-.436-.303-.66-.79-.66h-.601v1.318h.601c.487.001.79-.22.79-.658zm3.063 59.338c.316-.276.349-.309.349-.474a.324.324 0 0 0-.331-.31.32.32 0 0 0-.332.31c-.001.23.148.308.314.474zm21.554-25.065h-.449v1.948h.449c.562 0 .912-.453.912-.977s-.349-.971-.912-.971zM41.999 25.303c.892 0 1.468-.716 1.468-1.57s-.576-1.57-1.468-1.57c-.894 0-1.472.716-1.472 1.57s.578 1.57 1.472 1.57zM64.918 70.47c0-.813-.654-1.448-1.474-1.448-.821 0-1.474.635-1.474 1.448 0 .811.652 1.452 1.474 1.452.82 0 1.474-.642 1.474-1.452zm-2.236 0c0-.43.291-.796.763-.796.47 0 .761.366.761.796 0 .433-.291.8-.761.8-.472 0-.763-.368-.763-.8zm-1.176.993c0-.258-.205-.463-.461-.463s-.461.205-.461.463c0 .256.205.459.461.459s.461-.203.461-.459zm-3.039-1.382c-.6 0-1.082.386-1.082.915 0 .587.475.926.994.926.623 0 .908-.42.908-.42v.35h.646v-1.8c0-.628-.465-1.03-1.256-1.03-.578 0-1.09.25-1.09.25l.227.576s.424-.203.826-.203c.246 0 .594.117.594.477v.158c0-.001-.261-.199-.767-.199zm.767.938s-.221.32-.641.32c-.215 0-.5-.063-.5-.354 0-.298.297-.391.514-.391.377 0 .627.139.627.139v.286zm-6.588-1.345c.42 0 .646.291.646.291l.485-.431s-.391-.513-1.132-.513c-.826 0-1.484.635-1.484 1.45 0 .809.658 1.45 1.484 1.45.746 0 1.141-.524 1.141-.524l-.457-.467s-.211.339-.684.339c-.471 0-.772-.368-.772-.798.001-.431.303-.797.773-.797zm1.677-2.225v4.402h.698v-1.816s.188-.359.547-.359c.303 0 .549.166.549.564v1.611h.697v-1.787c0-.664-.477-1.043-1.012-1.043-.537 0-.781.402-.781.402v-1.975h-.698zm11.103 1.643v2.76h.699v-1.805s.193-.373.619-.373c.203 0 .33.063.33.063l.246-.628s-.229-.088-.479-.088c-.512 0-.751.471-.751.471v-.4h-.664zm-35.133 1.292c.81 0 1.352-.56 1.352-1.306 0-.744-.542-1.302-1.352-1.302h-1.387v4.075h.701v-1.468h.686zm-.686-1.946h.598c.478 0 .729.256.729.64 0 .385-.251.642-.729.642h-.598v-1.282zm39.227 4.17c-.531 0-.916-.407-.916-.407l-.396.536s.52.524 1.312.524c.772 0 1.484-.426 1.484-1.386v-2.784h-.646v.359s-.256-.432-.834-.432c-.717 0-1.344.601-1.344 1.452 0 .85.627 1.45 1.344 1.45a.98.98 0 0 0 .779-.356v.332c0 .416-.244.712-.783.712zm.127-1.338c-.473 0-.758-.342-.758-.798 0-.454.285-.798.758-.798.459 0 .656.385.656.385v.826s-.201.385-.656.385zm-32.44-1.596c.42 0 .645.291.645.291l.482-.431s-.389-.513-1.127-.513c-.828 0-1.486.635-1.486 1.45 0 .809.658 1.45 1.486 1.45.742 0 1.141-.524 1.141-.524l-.461-.467s-.21.339-.68.339c-.473 0-.777-.368-.777-.798 0-.431.305-.797.777-.797zm-1.81.786c0-.851-.637-1.438-1.392-1.438-.796 0-1.386.641-1.386 1.448 0 .812.646 1.452 1.484 1.452.67 0 1.105-.397 1.105-.397L34.176 71s-.273.282-.758.282c-.438 0-.721-.314-.773-.562h2.061c.005-.104.005-.208.005-.26zm-2.066-.245c.021-.244.227-.559.675-.559.459 0 .681.318.693.559h-1.368zm5.55-2.766v4.402h.699v-1.816s.186-.359.547-.359c.304 0 .547.166.547.564v1.611h.699v-1.787c0-.664-.477-1.043-1.012-1.043-.537 0-.781.402-.781.402v-1.975h-.699zm9.965 1.643v1.787c0 .665.482 1.043 1.012 1.043.566 0 .827-.473.827-.473v.402h.651v-2.76h-.697v1.84s-.188.339-.549.339c-.354 0-.547-.176-.547-.584v-1.595h-.697zm-5.819.989c-.601 0-1.083.386-1.083.915 0 .587.477.926.995.926.624 0 .909-.42.909-.42v.35h.646v-1.8c0-.628-.466-1.03-1.259-1.03-.576 0-1.088.25-1.088.25l.229.576s.424-.203.826-.203c.244 0 .592.117.592.477v.158c-.001-.001-.26-.199-.767-.199zm.766.938s-.22.32-.641.32c-.214 0-.498-.063-.498-.354 0-.298.295-.391.51-.391.38 0 .629.139.629.139v.286zm1.479-3.243v4.075h.697V70.01l1.604 1.841h.925l-1.792-2.073 1.594-2.002h-.874l-1.457 1.827v-1.827h-.697z"/></symbol><symbol id="logo-short" viewBox="0 0 150 30"><path d="M144.993 17.95v2.106h.312v-1.521l.717 1.188.718-1.188v1.521h.313V17.95h-.313l-.718 1.178-.717-1.178h-.312zm-1.28.298v1.809h.312v-1.809h.58v-.298h-1.462v.298h.57zm-22.13 3.957a1.265 1.265 0 0 1-.115.24c-.039.077-.084.159-.12.24-.044.125-.097.265-.151.42-.232.651-.549 1.551-1.061 1.713a.834.834 0 0 1-.266.043.582.582 0 0 1-.467-.221c-.166-.217-.217-.547-.134-.884.212-.871 1.377-1.381 2.314-1.551m1.25-3.316c-1.428-.135-2.065-1.059-2.065-1.912 0-.295.068-.609.134-.854.182-.566.912-1.866 2.221-1.866.767 0 1.266.408 1.344.819-.622 1.461-1.068 2.497-1.634 3.813m-4.721 5.589c.055 1.118 1.162 1.897 2.369 1.897.068 0 .141 0 .212-.004 1.388-.102 1.892-1.447 2.335-2.634.09-.245.174-.466.264-.68.049-.116.525-1.249 1.192-2.819.747-.229 2.038-1.318 2.255-1.47l-.525 1.062c-.02.042-.02.077-.02.101 0 .311.64.446 1.258.446.641 0 1.125-.334 1.207-.603.064-.255.491-1.302.758-1.974l.001-.011c.056-.29 1.248-3.054 1.248-3.054.483-.406.869-.538 1.146-.538.521 0 .638.428.638.615a.885.885 0 0 1-.116.424l-.775 1.924c-.135.35-.194.68-.194.971 0 1.783 1.358 2.229 2.136 2.229.885 0 1.512-.205 2.617-1.012.49.652 1.276 1 2.31 1.012h.034c1.019 0 1.855-.25 2.735-.984.304-.252.795-.725.769-1.077-.031-.407-.487-.595-.487-.595s-.266.217-.605.438c-.56.361-1.141.734-1.846.805-.575.053-.954-.023-1.154-.24-.155-.172-.22-.459-.187-.846.051-.56.289-1.133.55-1.73l1.12-2.809h2.231s.244 0 .421-.473c.057-.237.017-.459-.129-.459h-2.148l1.805-4.507c.02-.023.02-.062.02-.077 0-.271-.389-.504-.967-.504-.68 0-.96.274-1.097.584l-1.89 4.504h-1.077s-.245-.007-.422.467c-.061.232-.017.465.126.465h.982l-1.241 2.949h.001c-.229.564-.424 1.186-.402 1.896-.543.353-.885.485-1.236.485-.371 0-.602-.264-.602-.637 0-.271.096-.562.135-.659l.483-1.315c.215-.605.37-1.09.37-1.516 0-1.45-.854-1.839-2.057-1.839-.657 0-1.298.306-1.298.306l2.115-5.094c.021-.021.021-.061.021-.076 0-.275-.604-.508-1.184-.508-.68 0-1.066.271-1.205.584l-3.582 8.729c-.143.214-1.223 1.287-2.296 1.865 1.168-2.766.964-2.283 2.249-5.363h.005l.057-.148c.001 0 .004-.003.004-.008l.058-.146c.017-.016.017-.055.017-.07 0-.271-.56-.473-1.106-.473-.62 0-.974.264-1.109.574l-.212.487c-.489-.441-1.261-.658-2.019-.658-1.588 0-4.338 1.062-4.478 4.306 0 .271.019.5.061.732-.738.68-1.322.889-1.862.889-.389 0-.641-.268-.641-.637 0-.213.077-.484.213-.833 0 0 .119-.253 1.514-3.701.018-.019.018-.062.018-.081 0-.271-.581-.504-1.143-.504-.639 0-1.008.271-1.146.585 0 0-1.254 3.046-1.631 4.038-.377.99.103 1.83.103 1.83 0-.037.385 1.051 1.727 1.051 1.605 0 2.226-.639 3.353-1.414.726 1.032 2.029 1.342 2.942 1.402-.151.351-.259.591-.29.669-1.935.228-3.907 1.249-3.806 3.459m1.2-14.205c0-.684-.556-1.24-1.244-1.24a1.245 1.245 0 1 0 1.244 1.24m-109.21 4c-.775-.23-1.104-.835-1.104-1.338 0-.429.27-.97.754-.97.33 0 .582.289.582.853l-.232 1.455zm2.52-7.685c-3.141 0-5.41 1.016-7.464 1.963-.079.023-.118.138-.118.31 0 .179.061.389.158.602 0 .078.408.738.813.738 1.764-.967 3.972-1.494 6.223-1.494 2.538 0 3.488 1.613 3.488 2.447 0 2.076-2.056 3.564-3.451 3.564-.077 0-.134-.02-.212-.02.078-.097.465-1.028.465-2.013 0-1.284-1.223-1.962-2.175-1.962-1.255 0-2.399.736-2.399 2.248 0 .466.133 1.164.54 1.669.584.696 1.222.813 1.222.813-.25 1.319-.638 1.998-.773 2.328-.193.441-.484.85-1.185.85-.638 0-1.412-.269-2.11-.637-.02-.02-.058-.043-.077-.043-.271 0-.62.66-.62 1.027 0 .141.018.254.076.33.233.233 1.512 1.013 2.791 1.013 1.668 0 2.791-.697 3.411-2.54l.641-1.881c0-.039.232-.02.543-.02 1.164 0 2.579-.35 3.935-1.357 1.301-.97 2.056-2.404 2.056-3.855-.002-3.102-3.742-4.08-5.778-4.08m37.125 13.654h-.003.003zm56.847-8.58c-.071-.07-.147-.14-.228-.217-.562-.528-1.19-1.125-1.248-1.877-.046-.56.172-.916.357-1.125a1.37 1.37 0 0 1 .99-.435c.339 0 .648.136.878.372.132.139.271.445.233.86-.059.702-.389 1.315-.709 1.905-.091.172-.184.343-.273.517m-14.982 6.927c-.466 0-.698-.364-.698-.868 0-1.861 1.919-3.701 3.005-3.701.365 0 .795.113.969.699l-1.18 2.809c-.371.464-1.205 1.061-2.096 1.061m-36.81-4.646c-.191-.02-1.24-1.028-1.24-3.414 0-.131 0-.271.021-.388.056-.423.485-1.916 1.18-1.972.739 0 1.104 1.003 1.125 1.371 0 .135.019.275.019.406-.001 2.391-1.105 3.997-1.105 3.997m-10.311 4.655c-.466 0-.699-.373-.699-.873 0-1.861 1.918-3.705 3.004-3.705.37 0 .795.117.972.699l-1.183 2.809c-.369.468-1.204 1.07-2.094 1.07M19.56 16.752a1.906 1.906 0 0 1-.113-.617c0-1.299 1.26-1.804 1.666-1.804.428 0 .638.296.66.543-.001.504-.469 1.047-2.213 1.878m94.408-8.409c-.134.283-2.312 5.677-3.059 7.578-.177-.202-2.257-2.063-2.945-3.006.134-.392.324-.803.525-1.229.434-.927.883-1.885.83-2.91-.063-1.209-1.32-2.055-2.498-2.179a2.798 2.798 0 0 0-.353-.021c-1.735 0-3.094 1.371-3.094 3.115 0 1.425.587 2.106 1.207 2.832.093.108.192.225.287.341.066.077.146.171.238.271.177.194.54.597.55.729-.003.086-.143.381-.209.523-.041.086-.074.168-.103.226-.396.964-1.72 4.06-2.165 4.937-1.102 2.158-3.654 1.064-2.164-1.226.177-.271.423-.487.72-.782l.064-.066c.124-.144-.134-.547-.448-.83-.488-.441-.683-.338-.895-.229-.471.334-.857.687-.857.687s-1.84 1.45-2.812 1.45c-.022 0-.056.004-.079 0l.002-.004c-.446 0-.604-.418-.604-.713 0-.253.08-.505.157-.676l1.646-3.959c.018-.021.018-.059.018-.074 0-.275-.598-.509-1.199-.509-.66 0-1.104.275-1.221.583l-.118.31c-.426-.659-1.046-.893-1.763-.893-2.888 0-4.787 2.929-4.984 4.983-.652.521-1.387.968-1.91.971-.346-.02-.566-.279-.566-.636 0-.271.098-.56.136-.66l.487-1.318c.213-.605.367-1.086.367-1.513 0-1.458-.854-1.842-2.057-1.842-.657 0-1.297.31-1.297.31L85.9 7.859c.022-.022.022-.062.022-.077 0-.271-.603-.504-1.184-.504-.68 0-1.067.271-1.203.581l-3.245 7.964c-.385 1.223-2.885 2.944-4.029 2.944-1.452 0-1.92-1.063-1.92-1.858 0-.252.061-.523.117-.736.154-.485.777-1.703 1.9-1.703.717 0 .93.365.93.752 0 .271-.115.543-.252.68l.447.329c1.084-.427 1.451-1.202 1.451-1.843 0-1.202-1.279-1.783-2.519-1.783-1.588 0-4.341 1.065-4.478 4.305 0 .275.02.5.059.737-.738.678-1.32.888-1.863.888-.391 0-.64-.271-.64-.636 0-.216.077-.489.216-.837 0 0 .205-.396 1.6-3.85.02-.015.02-.053.02-.077 0-.267-.58-.501-1.141-.501-.643 0-1.01.269-1.146.578l-2.01 4.896s-.678.445-1.008.445c-.466 0-.834-.174-.834-.713 0-.194.078-.408.178-.656l.969-2.35c.095-.233.264-.668.264-.924 0-.617-.427-1.277-1.785-1.277h-1.104c-.794 0-1.202.719-1.202 1.045 0 .077.019.193.25.193h.896c.311 0 .481.252.481.504 0 .116-.127.42-.227.672 0 .02-.115.232-.907 2.229l-.041.101c-.871.77-1.668 1.176-2.307 1.176-1.531 0-.348-2.191-2.21-3.157 3.796-2.292 6.139-7.288 6.255-7.537.019-.022.019-.038.019-.077 0-.271-.639-.504-1.28-.504-.734 0-1.162.268-1.3.581-1.936 4.458-4.179 6.257-5.147 6.568-.175.058-.192.019-.289.042.929-.915 1.59-3.437 1.59-4.484 0-2.328-1.689-3.003-2.348-3.078a5.241 5.241 0 0 0-.773-.064c-2.465 0-3.878 2.139-3.878 4.136 0 1.142.444 2.323 1.377 3.235.718.698 1.434.868 1.434.868-.794 1.552-1.63 3.472-4.188 3.472h-.005c-.767 0-.926-.422-.926-.713 0-.254.077-.506.154-.68l1.648-3.955c.021-.021.021-.057.021-.078 0-.271-.601-.504-1.203-.504-.659 0-1.106.271-1.22.582l-.115.311c-.427-.66-1.051-.893-1.768-.893-2.886 0-4.784 2.924-4.981 4.982-.66.525-1.394.967-1.919.967-.367 0-.6-.268-.6-.636 0-.271.098-.56.137-.66l.541-1.318c.252-.622.369-1.146.369-1.59 0-1.397-.97-1.765-2.113-1.765-.66 0-1.299.31-1.299.31l2.113-5.098c.019-.019.019-.058.019-.08 0-.272-.601-.504-1.183-.504-.678 0-1.066.274-1.2.584l-3.142 7.716c-.427 1.219-2.791 3.235-4.187 3.235-1.455 0-1.919-1.063-1.919-1.858 0-.252.058-.523.117-.736.154-.485.773-1.703 1.898-1.703.718 0 .932.365.932.752 0 .271-.118.543-.254.68l.447.329c1.083-.427 1.452-1.202 1.452-1.843 0-1.202-1.278-1.783-2.517-1.783-1.594 0-4.346 1.065-4.48 4.305 0 .194 0 .368.02.543-.893.854-2.17 1.455-3.217 1.455-.816 0-1.515-.566-1.707-1.24 2.771-.68 4.089-1.979 4.089-3.163 0-1.318-1.2-1.88-2.344-1.88-2.114 0-4.4 1.551-4.4 3.994 0 2.25 1.685 3.704 3.972 3.704 1.417 0 3.025-.697 4.053-1.59.815 1.315 2.48 1.547 3.412 1.547.949 0 2.285-.345 3.371-1.745l-.601 1.203c-.02.037-.02.062-.02.102 0 .309.641.44 1.283.44.618 0 1.142-.267 1.219-.542.076-.369.854-2.07.872-2.188l1.203-2.885c.485-.412.871-.548 1.144-.548.522 0 .638.426.638.62a.885.885 0 0 1-.115.423l-.775 1.924c-.135.35-.213.718-.213 1.01 0 1.784 1.376 2.187 2.151 2.187 1.146 0 2.055-.581 2.985-1.28.293.646.892 1.223 1.939 1.223 1.046 0 2.189-.33 3.121-1.145.445.893.863 1.164 2.928 1.164 4.107 0 4.981-2.246 6.3-4.554.89.247 1.007 1.435 1.007 2.056 0 .209-.018.35-.018.35 0 1.125.752 2.109 2.714 2.109.967 0 1.839-.137 3.083-1.082.328.945 1.354 1.184 1.762 1.184 1.552 0 2.83-1.07 2.83-1.07 0-.035.389 1.046 1.727 1.046 1.607 0 2.228-.635 3.354-1.411.832 1.18 2.423 1.411 3.312 1.411 1.106 0 2.908-.774 3.375-1.804l-.562 1.262c-.02.037-.02.077-.02.102 0 .309.641.44 1.26.44.639 0 1.124-.325 1.203-.597.097-.373.815-2.016.834-2.134l1.202-2.885c.484-.412.871-.548 1.145-.548.52 0 .636.426.636.62a.885.885 0 0 1-.116.423l-.771 1.924c-.136.35-.195.68-.195.971 0 1.785 1.357 2.226 2.132 2.226h.004c.005 0 .006 0 .006-.007 1.118-.016 2.021-.586 2.931-1.273.293.637.895 1.219 1.941 1.219 1.043 0 2.192-.326 3.121-1.141.447.893 1.279 1.164 2.131 1.164h.006c.664 0 1.246-.156 2.679-1.094-1.302 3.754 3.992 5.229 5.653 1.777.792-1.646 2.35-5.137 2.52-5.532.559.655 3.344 3.468 4.186 4.418l.214.241.123-.299a285.85 285.85 0 0 0 1.595-3.98c.863-2.181 2.755-6.698 2.794-6.787.317-.761.548-1.203 1.346-1.133 0 0 .364.109.71-.709.089-.354.023-.656-.188-.695a7.619 7.619 0 0 0-.783-.074c-.392 0-.954.043-1.433.265-.761.341-1.184.97-1.524 1.701"/></symbol><symbol id="logo" viewBox="0 0 300 100"><path d="M294.572 46.752l-1.416 2.324-1.414-2.324h-.615v4.155h.615v-3.001l1.414 2.344 1.416-2.344v3.001h.619v-4.155h-.619zm-9.593-10.969h-4.24l3.563-8.893c.037-.047.037-.121.037-.152 0-.536-.768-.994-1.908-.994-1.34 0-1.894.541-2.163 1.154l-3.729 8.885h-2.126s-.482-.014-.832.92c-.119.46-.033.919.25.919h1.938l-2.449 5.817h.002c-.452 1.115-.838 2.34-.795 3.74-1.071.697-1.746.959-2.439.959-.73 0-1.186-.521-1.186-1.258 0-.534.188-1.108.266-1.3l.953-2.597c.424-1.193.73-2.148.73-2.99 0-2.861-1.684-3.628-4.059-3.628-1.296 0-2.561.604-2.561.604l4.174-10.051c.04-.043.04-.121.04-.15 0-.544-1.19-1.002-2.335-1.002-1.342 0-2.104.535-2.377 1.152l-7.067 17.223c-.283.42-2.414 2.539-4.531 3.679 2.306-5.454 1.903-4.506 4.438-10.583h.01l.112-.291c.003 0 .008-.006.008-.018l.113-.288c.033-.03.033-.107.033-.137 0-.536-1.104-.935-2.184-.935-1.223 0-1.921.52-2.188 1.133l-.419.963c-.966-.871-2.489-1.3-3.982-1.3-3.134 0-8.56 2.095-8.835 8.495 0 .535.036.986.119 1.447-1.457 1.339-2.609 1.752-3.676 1.752-.765 0-1.264-.527-1.264-1.255 0-.421.152-.958.421-1.646 0 0 .234-.498 2.985-7.301.037-.039.037-.124.037-.162 0-.534-1.148-.994-2.256-.994-1.26 0-1.989.535-2.262 1.156 0 0-2.475 6.007-3.217 7.967-.744 1.952.201 3.611.201 3.611 0-.076.76 2.074 3.406 2.074 3.168 0 4.393-1.262 6.617-2.792 1.43 2.036 4.001 2.646 5.805 2.769-.299.689-.512 1.164-.574 1.318-3.805.451-7.697 2.463-7.498 6.824.107 2.206 2.292 3.744 4.674 3.744.137 0 .279 0 .419-.008 2.738-.199 3.732-2.854 4.608-5.197.176-.48.342-.916.518-1.34.099-.229 1.038-2.463 2.354-5.564 1.475-.45 4.021-2.6 4.449-2.898l-1.037 2.096c-.038.083-.038.153-.038.199 0 .612 1.263.88 2.483.88 1.264 0 2.219-.658 2.381-1.187.127-.504.969-2.57 1.494-3.896 0-.006 0-.013.002-.021.111-.572 2.463-6.023 2.463-6.023.955-.803 1.715-1.063 2.259-1.063 1.031 0 1.259.844 1.259 1.216 0 .346-.111.611-.228.835l-1.53 3.798c-.266.688-.385 1.338-.385 1.914 0 3.518 2.68 4.398 4.214 4.398 1.746 0 2.983-.406 5.165-1.999.968 1.286 2.518 1.976 4.557 1.999h.068c2.009 0 3.66-.497 5.396-1.943.599-.497 1.569-1.43 1.517-2.126-.062-.806-.961-1.175-.961-1.175s-.524.43-1.194.865c-1.104.713-2.251 1.449-3.644 1.587-1.133.104-1.882-.046-2.275-.476-.307-.338-.435-.902-.368-1.668.101-1.103.57-2.234 1.085-3.414l2.21-5.54h4.402s.481 0 .83-.935c.116-.465.036-.902-.253-.902zm-40.272 19.84c-.076.15-.164.312-.235.475-.087.244-.19.52-.3.825-.457 1.286-1.082 3.062-2.093 3.38a1.582 1.582 0 0 1-.522.087c-.371 0-.693-.153-.923-.437-.327-.428-.425-1.078-.263-1.744.418-1.721 2.715-2.727 4.564-3.061a2.573 2.573 0 0 1-.228.475zm2.695-7.019c-2.816-.266-4.075-2.089-4.075-3.771 0-.582.134-1.203.263-1.684.359-1.118 1.802-3.684 4.383-3.684 1.512 0 2.498.805 2.651 1.617a1536.465 1536.465 0 0 1-3.222 7.522zM29.947 24.334c-6.198 0-10.676 2.005-14.727 3.873-.156.046-.233.274-.233.613 0 .352.118.766.312 1.186 0 .155.807 1.455 1.604 1.455 3.479-1.905 7.837-2.947 12.278-2.947 5.007 0 6.883 3.185 6.883 4.83 0 4.096-4.057 7.031-6.81 7.031-.151 0-.263-.037-.419-.037.156-.19.918-2.029.918-3.972 0-2.532-2.411-3.872-4.291-3.872-2.476 0-4.735 1.455-4.735 4.436 0 .921.265 2.299 1.066 3.294 1.151 1.376 2.411 1.606 2.411 1.606-.493 2.602-1.26 3.942-1.527 4.592-.382.872-.954 1.676-2.336 1.676-1.259 0-2.787-.528-4.164-1.254-.039-.038-.114-.085-.152-.085-.536 0-1.225 1.302-1.225 2.028 0 .275.037.498.15.65.462.46 2.982 1.997 5.509 1.997 3.289 0 5.507-1.376 6.729-5.013l1.264-3.711c0-.075.459-.039 1.072-.039 2.295 0 5.089-.688 7.764-2.678 2.564-1.912 4.055-4.744 4.055-7.607.001-6.12-7.379-8.052-11.396-8.052zm-4.973 15.163c-1.53-.454-2.179-1.646-2.179-2.64 0-.844.531-1.912 1.486-1.912.651 0 1.149.57 1.149 1.681l-.456 2.871zm210.571-7.891a2.457 2.457 0 0 0 2.457 2.464 2.457 2.457 0 0 0 0-4.912 2.452 2.452 0 0 0-2.457 2.448zm51.93 15.736h1.125v3.565h.616v-3.565h1.145v-.59h-2.886v.59zM236.254 26.83s.719.216 1.403-1.399c.174-.698.045-1.294-.372-1.37-.272-.047-1.186-.146-1.546-.146-.774 0-1.883.084-2.828.521-1.493.68-2.33 1.92-3 3.359-.265.56-4.563 11.203-6.035 14.954-.349-.399-4.454-4.072-5.811-5.931.263-.774.638-1.584 1.034-2.426.857-1.83 1.744-3.721 1.641-5.742-.127-2.385-2.607-4.055-4.931-4.299a5.432 5.432 0 0 0-.695-.041c-3.423 0-6.104 2.705-6.104 6.146 0 2.811 1.158 4.156 2.382 5.587.183.214.38.444.565.674.132.152.289.337.471.536.348.382 1.066 1.178 1.085 1.438-.005.169-.281.752-.411 1.034-.082.168-.148.33-.203.444-.779 1.903-3.393 8.011-4.271 9.74-2.175 4.258-7.212 2.099-4.271-2.419.349-.533.835-.961 1.421-1.543l.125-.131c.247-.283-.262-1.08-.884-1.64-.962-.87-1.346-.665-1.763-.45-.931.658-1.692 1.355-1.692 1.355s-3.63 2.861-5.549 2.861c-.044 0-.108.008-.154 0l.001-.008c-.88 0-1.189-.824-1.189-1.406 0-.498.158-.996.31-1.332l3.249-7.814c.033-.04.033-.115.033-.146 0-.543-1.18-1.003-2.367-1.003-1.301 0-2.177.544-2.406 1.149l-.234.612c-.84-1.302-2.064-1.762-3.477-1.762-5.698 0-9.447 5.78-9.836 9.833-1.289 1.026-2.735 1.91-3.768 1.916-.684-.039-1.118-.552-1.118-1.256 0-.533.19-1.103.269-1.303l.961-2.6c.419-1.195.725-2.144.725-2.984 0-2.878-1.686-3.637-4.061-3.637-1.295 0-2.557.613-2.557.613l4.139-9.975c.043-.045.043-.121.043-.152 0-.534-1.187-.994-2.336-.994-1.34 0-2.104.535-2.373 1.146l-6.401 15.714c-.761 2.411-5.693 5.81-7.95 5.81-2.865 0-3.789-2.1-3.789-3.666 0-.498.12-1.033.232-1.453.303-.959 1.531-3.36 3.748-3.36 1.416 0 1.834.72 1.834 1.483 0 .535-.227 1.072-.496 1.34l.883.649c2.139-.843 2.863-2.372 2.863-3.634 0-2.374-2.525-3.521-4.97-3.521-3.134 0-8.565 2.104-8.835 8.496 0 .542.039.984.117 1.453-1.457 1.338-2.605 1.752-3.677 1.752-.771 0-1.263-.535-1.263-1.254 0-.428.151-.967.425-1.651 0 0 .405-.782 3.157-7.595.039-.029.039-.104.039-.152 0-.527-1.145-.988-2.25-.988-1.27 0-1.994.529-2.265 1.141l-3.965 9.658s-1.337.881-1.987.881c-.92 0-1.646-.344-1.646-1.408 0-.383.154-.805.35-1.294l1.911-4.636c.188-.46.521-1.318.521-1.824 0-1.217-.842-2.518-3.523-2.518h-2.175c-1.567 0-2.373 1.418-2.373 2.061 0 .152.037.381.493.381h1.767c.611 0 .951.5.951.996 0 .228-.252.826-.447 1.324 0 .039-.229.459-1.791 4.398l-.08.2c-1.72 1.518-3.29 2.319-4.553 2.319-3.02 0-.686-4.324-4.359-6.229 7.49-4.523 12.113-14.382 12.342-14.873.037-.045.037-.074.037-.152 0-.534-1.262-.994-2.525-.994-1.451 0-2.296.528-2.566 1.146-3.818 8.796-8.244 12.348-10.156 12.961-.345.113-.379.037-.57.083 1.833-1.806 3.137-6.781 3.137-8.849 0-4.592-3.333-5.924-4.63-6.074a10.491 10.491 0 0 0-1.527-.127c-4.863 0-7.651 4.221-7.651 8.161 0 2.251.875 4.583 2.717 6.384 1.416 1.377 2.829 1.713 2.829 1.713-1.569 3.061-3.218 6.85-8.264 6.85h-.01c-1.512 0-1.826-.832-1.826-1.408 0-.498.153-.996.306-1.338l3.252-7.807c.039-.04.039-.109.039-.154 0-.535-1.186-.993-2.373-.993-1.301 0-2.182.534-2.406 1.147l-.229.613c-.842-1.303-2.072-1.761-3.488-1.761-5.693 0-9.438 5.771-9.827 9.831-1.304 1.037-2.749 1.908-3.786 1.908-.726 0-1.183-.529-1.183-1.256 0-.533.191-1.103.267-1.303l1.069-2.6c.497-1.227.729-2.26.729-3.138 0-2.759-1.913-3.483-4.171-3.483-1.299 0-2.562.613-2.562.613l4.172-10.059c.037-.037.037-.113.037-.158 0-.537-1.186-.995-2.335-.995-1.338 0-2.103.542-2.368 1.153l-6.199 15.224c-.842 2.403-5.505 6.384-8.26 6.384-2.87 0-3.785-2.1-3.785-3.666 0-.498.113-1.033.229-1.453.306-.959 1.527-3.36 3.745-3.36 1.418 0 1.84.72 1.84 1.483 0 .535-.232 1.072-.5 1.34l.881.649c2.138-.843 2.866-2.372 2.866-3.634 0-2.374-2.521-3.521-4.966-3.521-3.145 0-8.574 2.104-8.842 8.496 0 .383 0 .725.039 1.071-1.76 1.683-4.281 2.871-6.348 2.871-1.607 0-2.986-1.118-3.365-2.448 5.465-1.341 8.066-3.906 8.066-6.24 0-2.603-2.367-3.71-4.624-3.71-4.172 0-8.683 3.061-8.683 7.881 0 4.439 3.323 7.309 7.836 7.309 2.796 0 5.969-1.376 7.996-3.138 1.609 2.596 4.896 3.053 6.732 3.053 1.873 0 4.51-.681 6.652-3.443l-1.186 2.375c-.038.074-.038.12-.038.198 0 .61 1.264.87 2.531.87 1.22 0 2.252-.527 2.405-1.068.149-.729 1.684-4.086 1.72-4.319l2.375-5.692c.956-.812 1.718-1.078 2.255-1.078 1.032 0 1.258.84 1.258 1.223 0 .346-.111.613-.226.834l-1.53 3.796c-.267.688-.421 1.415-.421 1.991 0 3.521 2.716 4.314 4.247 4.314 2.258 0 4.053-1.146 5.889-2.525.58 1.272 1.76 2.412 3.827 2.412 2.062 0 4.319-.65 6.157-2.258.879 1.759 1.704 2.296 5.777 2.296 8.104 0 9.828-4.433 12.43-8.985 1.755.489 1.986 2.832 1.986 4.058 0 .412-.033.688-.033.688 0 2.221 1.483 4.162 5.354 4.162 1.908 0 3.629-.269 6.083-2.135.649 1.866 2.671 2.336 3.477 2.336 3.062 0 5.585-2.113 5.585-2.113 0-.07.765 2.064 3.406 2.064 3.17 0 4.395-1.253 6.615-2.784 1.642 2.327 4.781 2.784 6.535 2.784 2.182 0 5.738-1.529 6.659-3.559l-1.11 2.49c-.039.074-.039.152-.039.198 0 .61 1.265.87 2.487.87 1.259 0 2.217-.643 2.373-1.176.191-.736 1.608-3.979 1.646-4.212l2.371-5.692c.955-.812 1.721-1.078 2.26-1.078 1.025 0 1.253.84 1.253 1.223 0 .346-.114.613-.228.834l-1.523 3.796a5.317 5.317 0 0 0-.385 1.915c0 3.521 2.679 4.391 4.205 4.391h.009c.009 0 .012 0 .012-.014 2.205-.029 3.985-1.156 5.781-2.512.579 1.256 1.767 2.404 3.832 2.404 2.058 0 4.325-.643 6.157-2.25.883 1.76 2.525 2.296 4.205 2.296h.012c1.31 0 2.457-.308 5.284-2.159-2.567 7.409 7.878 10.318 11.154 3.507 1.563-3.247 4.637-10.133 4.972-10.915 1.103 1.295 6.597 6.844 8.258 8.718l.423.476.242-.59a542.63 542.63 0 0 0 3.147-7.854c1.701-4.301 5.436-13.214 5.512-13.392.626-1.496 1.08-2.369 2.652-2.23zM43.412 43.169c0-2.562 2.485-3.558 3.288-3.558.841 0 1.257.583 1.3 1.071 0 .995-.923 2.066-4.364 3.704a3.723 3.723 0 0 1-.224-1.217zm53.545 2.748c-.728.927-2.375 2.112-4.129 2.112-.92 0-1.381-.735-1.381-1.721 0-3.673 3.784-7.311 5.926-7.311.732 0 1.57.23 1.918 1.377l-2.334 5.543zm16.213-7.07c-.378-.038-2.445-2.028-2.445-6.736 0-.26 0-.534.041-.765.11-.836.959-3.781 2.328-3.89 1.458 0 2.177 1.979 2.22 2.705 0 .267.037.542.037.802 0 4.713-2.181 7.884-2.181 7.884zm76.766 7.07c-.732.919-2.377 2.096-4.135 2.096-.919 0-1.378-.719-1.378-1.715 0-3.672 3.786-7.3 5.929-7.3.722 0 1.57.223 1.912 1.377l-2.328 5.542zm25.966-12.589c-.181.338-.366.674-.542 1.018-.14-.139-.291-.275-.449-.428-1.106-1.043-2.349-2.22-2.463-3.704-.09-1.104.341-1.806.706-2.221a2.71 2.71 0 0 1 1.955-.856c.666 0 1.279.268 1.731.733.26.275.532.881.458 1.698-.112 1.385-.763 2.596-1.396 3.76zm-92.968-17.849h3.171l.687 1.684h1.726l-3.213-7.555h-1.523l-3.214 7.555h1.684l.682-1.684zm1.587-3.889l.995 2.432h-1.993l.998-2.432zm-13.489 3.17h1.298l1.607 2.402h1.929l-1.832-2.681c.954-.353 1.604-1.114 1.604-2.324v-.021c0-.711-.222-1.299-.641-1.716-.492-.493-1.232-.761-2.187-.761h-3.429v7.502h1.649V14.76zm0-3.613h1.64c.806 0 1.297.365 1.297 1.075v.02c0 .633-.459 1.061-1.265 1.061h-1.672v-2.156zm-6.982 3.957v-.021c0-1.008-.535-1.51-1.402-1.842.535-.3.985-.773.985-1.621v-.02c0-.515-.172-.932-.514-1.275-.428-.428-1.102-.664-1.961-.664h-3.482v7.502h3.566c1.694-.001 2.808-.686 2.808-2.059zm-4.769-3.999h1.631c.695 0 1.082.277 1.082.773v.02c0 .561-.461.795-1.191.795h-1.521v-1.588zm0 2.957h1.908c.848 0 1.224.312 1.224.816v.02c0 .56-.441.816-1.171.816h-1.961v-1.652zM145.05 9.66h-1.65v7.502h1.65V9.66zm28.958 5.819h3.174l.684 1.684h1.727l-3.215-7.555h-1.521l-3.216 7.555h1.683l.684-1.684zm1.587-3.889l.997 2.432h-1.993l.996-2.432zm-41.197 5.572h1.65v-5.981h2.281V9.66h-6.214v1.521h2.282v5.981zm62.344-1.683h3.171l.687 1.684h1.724l-3.213-7.555h-1.521l-3.217 7.555h1.684l.685-1.684zm1.586-3.889l.998 2.432h-1.996l.998-2.432zm-10.616 5.625l3.032-7.555h-1.78l-1.96 5.283-1.961-5.283h-1.821l3.032 7.555h1.458zm-34.222-1.403c-.859 0-1.566-.354-2.241-.913l-.975 1.17a4.77 4.77 0 0 0 3.182 1.201c1.62 0 2.754-.836 2.754-2.326v-.022c0-1.306-.856-1.854-2.378-2.25-1.297-.333-1.62-.494-1.62-.986v-.021c0-.365.333-.654.966-.654.635 0 1.286.277 1.951.74l.857-1.244c-.761-.609-1.691-.951-2.786-.951-1.534 0-2.625.898-2.625 2.258v.021c0 1.492.976 1.91 2.485 2.295 1.254.322 1.514.535 1.514.953v.021c0 .439-.41.708-1.084.708zm13.461-.15h-3.741V9.66h-1.65v7.502h5.392v-1.5zm35.194 75.735c-.824-.306-1.295-.471-1.295-.993 0-.408.404-.722.917-.722.747 0 1.249.678 1.249.678l.712-.706s-.708-.948-1.961-.948c-1.206 0-1.963.853-1.963 1.698 0 1.113 1.001 1.592 1.875 1.898.72.251 1.101.428 1.101.941 0 .488-.528.691-1.044.691-.919 0-1.424-.902-1.424-.902l-.771.652s.694 1.226 2.195 1.226c1.134 0 2.097-.585 2.097-1.667-.001-1.093-.761-1.503-1.688-1.846zm.638-18.383c0-5.732-4.461-10.115-10.196-10.115s-10.192 4.383-10.192 10.115c0 5.73 4.457 10.109 10.192 10.109s10.196-4.379 10.196-10.109zm-10.196 7.966c-4.468 0-7.922-3.59-7.922-7.967 0-4.383 3.454-7.97 7.922-7.97 4.465 0 7.927 3.587 7.927 7.97 0 4.378-3.462 7.967-7.927 7.967zm-88.958 10.845l-1.954-3.017h-.958v6.004h1.031v-4.031l1.881 2.853 1.87-2.853v4.031h1.036v-6.004h-.955l-1.951 3.017zm63.686-.428c-.825-.306-1.298-.471-1.298-.993 0-.408.412-.722.922-.722.746 0 1.235.678 1.235.678l.719-.706s-.709-.948-1.954-.948c-1.208 0-1.965.853-1.965 1.698 0 1.113.996 1.592 1.875 1.898.715.251 1.096.428 1.096.941 0 .488-.524.691-1.043.691-.912 0-1.425-.902-1.425-.902l-.771.652s.695 1.226 2.195 1.226c1.135 0 2.103-.585 2.103-1.667.001-1.093-.775-1.503-1.689-1.846zm-8.819-28.129L150 71.77l-8.498-8.502-1.531 1.532 8.5 8.501-8.5 8.496 1.531 1.528L150 74.83l8.496 8.495 1.537-1.528-8.503-8.496 8.503-8.501-1.537-1.532zm-35.324-.37c-5.727 0-10.189 4.383-10.189 10.115 0 5.73 4.463 10.109 10.189 10.109 5.732 0 10.191-4.379 10.191-10.109 0-5.732-4.459-10.115-10.191-10.115zm0 18.082c-4.465 0-7.918-3.59-7.918-7.967 0-4.383 3.453-7.97 7.918-7.97 4.469 0 7.92 3.587 7.92 7.97 0 4.378-3.451 7.967-7.92 7.967zm54.444 12.975c-1.187 0-1.997-.991-1.997-2.15 0-1.154.811-2.145 1.997-2.145.984 0 1.521.662 1.521.662l.692-.676s-.779-.94-2.214-.94c-1.735 0-3.051 1.327-3.051 3.099 0 1.781 1.315 3.106 3.051 3.106 1.512 0 2.307-1.022 2.307-1.022l-.687-.672c.001 0-.569.738-1.619.738zm13.858-1.017l-3.011-4.13h-.92v6.004h1.03V90.68l2.999 4.133h.927v-6.004h-1.025v4.129zm-20.3-.719h2.4v-.975h-2.4v-1.455h2.602v-.98h-3.633v6.004h3.676v-.983h-2.645v-1.611zm24.621-3.41h-1.937v6.004h1.937c1.748 0 2.969-1.271 2.969-3.008 0-1.732-1.221-2.996-2.969-2.996zm.022 5.021h-.934v-4.041h.934c1.167 0 1.901.922 1.901 2.016.001 1.088-.734 2.025-1.901 2.025zm-21.096-19.386l-8.469 8.172h14.414v-2.021h-9.236s5.944-5.938 6.283-6.323c1.009-1.134 2.354-2.649 2.354-4.838 0-4.048-2.861-6.536-6.697-6.536-3.287 0-5.771 2.022-6.905 5.095l1.976.85c.76-2.147 2.527-3.799 4.93-3.799 2.741 0 4.424 1.692 4.424 4.391-.002 1.933-1.647 3.621-3.074 5.009zM97.59 94.812h1.027v-6.004H97.59v6.004zm85.902-6.106c-1.75 0-3.039 1.327-3.039 3.099 0 1.781 1.289 3.106 3.039 3.106 1.742 0 3.037-1.325 3.037-3.106 0-1.772-1.295-3.099-3.037-3.099zm0 5.23c-1.205 0-1.989-.972-1.989-2.131 0-1.154.784-2.122 1.989-2.122 1.207 0 1.982.968 1.982 2.122.001 1.159-.775 2.131-1.982 2.131zm-78.193-19.492l-8.467 8.172h14.417v-2.021h-9.228s5.934-5.938 6.279-6.323c.998-1.134 2.352-2.649 2.352-4.838 0-4.048-2.863-6.536-6.697-6.536-3.285 0-5.777 2.022-6.914 5.095l1.984.85c.759-2.147 2.535-3.799 4.93-3.799 2.746 0 4.423 1.692 4.423 4.391 0 1.933-1.642 3.621-3.079 5.009zm12.346 17.947h1.361v1.266s-.357.299-1.214.299c-1.208 0-2.11-.991-2.11-2.15 0-1.154.859-2.145 2.074-2.145 1.018 0 1.516.629 1.516.629l.701-.688s-.742-.896-2.217-.896c-1.756 0-3.117 1.327-3.117 3.099 0 1.781 1.4 3.106 3.153 3.106 1.46 0 2.226-.759 2.226-.759v-2.725h-2.373v.964zm-7.371-3.582l-2.339 6.004h1.041l.549-1.428h2.537l.554 1.428h1.03l-2.328-6.004h-1.044zm-.379 3.634l.896-2.347.903 2.347h-1.799zm12.945-.224h2.408v-.975h-2.408v-1.455h2.611v-.98h-3.637v6.004h3.683v-.983h-2.657v-1.611zm6.738-.822c-.824-.306-1.289-.471-1.289-.993 0-.408.395-.722.914-.722.742 0 1.244.678 1.244.678l.706-.706s-.702-.948-1.95-.948c-1.211 0-1.97.853-1.97 1.698 0 1.113.995 1.592 1.882 1.898.713.251 1.099.428 1.099.941 0 .488-.532.691-1.048.691-.908 0-1.422-.902-1.422-.902l-.777.652s.703 1.226 2.199 1.226c1.131 0 2.096-.585 2.096-1.667 0-1.093-.766-1.503-1.684-1.846z"/></symbol><symbol id="menu-close" viewBox="0 0 20 20"><path d="M18.384 2.383l-.768-.766L10 9.232 2.384 1.617l-.768.766L9.232 10l-7.616 7.617.768.766L10 10.768l7.616 7.615.768-.766L10.768 10z"/></symbol><symbol id="menu-open" viewBox="0 0 20 20"><path d="M0 10h20V9H0v1zm0 8h20v-1H0v1zM0 1v1h20V1H0z"/></symbol><symbol id="search" viewBox="0 0 20 20"><path d="M17.643 17.34l-4.761-4.762a5.998 5.998 0 0 1-3.881 1.421A5.993 5.993 0 0 1 3 7.998c0-3.321 2.68-6.002 6.001-6.002s6.001 2.681 6.001 6.002c0 1.48-.541 2.84-1.42 3.881l4.781 4.78-.72.681zm-3.641-9.342c0-2.762-2.24-5.002-5.001-5.002S4 5.236 4 7.998a5.002 5.002 0 0 0 10.002 0z"/></symbol><symbol id="share-email" viewBox="0 0 20 20"><path d="M12.322 12.487c-.458.674-1.452 1.33-2.695 1.33-2.16 0-3.535-1.677-3.535-3.722 0-2.043 1.375-3.72 3.535-3.72.995 0 1.854.423 2.39 1.177V6.55h1.529v4.164c0 1.06.498 1.599 1.186 1.599 1.11 0 1.645-1.001 1.645-2.892 0-3.393-2.6-5.879-6.308-5.879-3.785 0-6.347 2.815-6.347 6.554 0 3.624 2.753 6.267 6.519 6.267 3.575 0 5.678-1.929 5.678-1.929v1.812S14.045 18 10.241 18C5.46 18 2 14.703 2 10.096 2 5.585 5.269 2 10.067 2 14.826 2 18 5.257 18 9.421c0 2.949-1.548 4.396-3.364 4.396-.975 0-1.855-.502-2.314-1.33zm-4.53-2.391c0 1.196.726 2.18 2.122 2.18 1.32 0 2.103-.983 2.103-2.18v-.076c-.038-1.157-.821-2.102-2.103-2.102-1.396 0-2.122.983-2.122 2.178z"/></symbol><symbol id="share-facebook" viewBox="0 0 20 20"><path d="M13.883 7.182h-2.531v-1.66c0-.625.414-.771.705-.771h1.786V2.01L11.382 2C8.649 2 8.028 4.045 8.028 5.354v1.828H6.449v2.824h1.579V18h3.324v-7.994h2.241l.29-2.824z"/></symbol><symbol id="share-google" viewBox="0 0 20 20"><path d="M10.138 8.996c-.002.797 0 1.592.002 2.387 1.334.043 2.67.023 4.004.043-.59 2.959-4.613 3.916-6.74 1.984-2.19-1.693-2.084-5.41.189-6.982 1.592-1.271 3.854-.957 5.444.143a24.997 24.997 0 0 0 1.774-1.836c-1.322-1.057-2.947-1.809-4.674-1.729-3.606-.121-6.921 3.039-6.979 6.644-.23 2.947 1.708 5.838 4.445 6.881 2.726 1.051 6.223.334 7.965-2.115 1.146-1.547 1.395-3.539 1.26-5.41-2.233-.018-4.461-.014-6.69-.01z"/></symbol><symbol id="share-twitter" viewBox="0 0 20 20"><path d="M18.5 5.039a6.607 6.607 0 0 1-1.887.518 3.287 3.287 0 0 0 1.445-1.816 6.627 6.627 0 0 1-2.086.797 3.281 3.281 0 0 0-5.677 2.245c0 .256.027.508.084.748A9.323 9.323 0 0 1 3.613 4.1a3.257 3.257 0 0 0-.443 1.65 3.28 3.28 0 0 0 1.459 2.732 3.306 3.306 0 0 1-1.486-.41v.041a3.283 3.283 0 0 0 2.633 3.219 3.316 3.316 0 0 1-1.48.056 3.282 3.282 0 0 0 3.066 2.277 6.592 6.592 0 0 1-4.861 1.359A9.279 9.279 0 0 0 7.533 16.5c6.037 0 9.34-5.002 9.34-9.34 0-.141-.004-.285-.012-.424A6.629 6.629 0 0 0 18.5 5.039z"/></symbol><symbol id="social-facebook" viewBox="0 0 20 20"><path d="M13.883 7.182h-2.531v-1.66c0-.625.414-.771.705-.771h1.786V2.01L11.382 2C8.649 2 8.028 4.045 8.028 5.354v1.828H6.449v2.824h1.579V18h3.324v-7.994h2.241l.29-2.824z"/></symbol><symbol id="social-youtube" viewBox="0 0 20 20"><path d="M18.689 5.745c-.22-.958-1.003-1.663-1.946-1.769-2.232-.25-4.491-.25-6.74-.25-2.25 0-4.509 0-6.741.25-.942.106-1.724.811-1.945 1.769C1.003 7.108 1 8.596 1 10s0 2.892.314 4.255c.22.956 1.002 1.663 1.945 1.769 2.232.25 4.491.25 6.741.25s4.508 0 6.74-.25c.942-.105 1.726-.812 1.946-1.769.313-1.363.314-2.851.314-4.255s.002-2.892-.311-4.255zM7.677 12.794V6.842l5.722 2.984c-1.913.993-3.809 1.977-5.722 2.968z"/></symbol></svg>